<?xml version="1.0" encoding="utf-8"?>
<!-- Generator: Adobe Illustrator 27.2.0, SVG Export Plug-In . SVG Version: 6.00 Build 0)  -->
<svg version="1.1" id="Capa_1" xmlns="http://www.w3.org/2000/svg" xmlns:xlink="http://www.w3.org/1999/xlink" x="0px" y="0px"
	 viewBox="0 0 800 486" style="enable-background:new 0 0 800 486;" xml:space="preserve">
<style type="text/css">
	.st0{fill:#E3F7FF;}
	.st1{fill:url(#SVGID_1_);}
	.st2{fill:url(#SVGID_00000116928218024811885180000017614780052830888628_);}
	.st3{fill:url(#SVGID_00000029755880624969396220000017712279395112517029_);}
</style>
<g>
	<g>
		<g>
			<path class="st0" d="M311.16,149.26c-27.85,0-55.63-8.24-80-24.62l-1.08-0.73c-19.93-13.4-44.39-17.19-67.12-10.4l-68.02,20.31
				c-16.82,5.02-34.54-4.54-39.56-21.37c-5.02-16.83,4.54-34.54,21.37-39.56l68.02-20.31c41-12.24,85.03-5.48,120.79,18.56
				l1.08,0.73c25.7,17.28,58.2,18.31,84.82,2.69l2.67-1.57c21.92-12.86,46.84-19.69,72.07-19.76c0.12,0,0.25,0,0.37,0
				c25.1,0,49.92,6.7,71.8,19.38l2.37,1.37c26.84,15.56,59.46,14.27,85.12-3.35c35.58-24.43,79.6-31.62,120.77-19.72l69.53,20.1
				c16.87,4.88,26.59,22.51,21.71,39.37c-4.88,16.87-22.51,26.59-39.37,21.71L688.96,112c-22.82-6.6-47.28-2.57-67.11,11.05
				c-22.49,15.44-48.65,24.16-75.66,25.22c-27.01,1.06-53.77-5.61-77.34-19.27l-2.37-1.37c-25.14-14.57-55.11-14.49-80.17,0.21
				l-2.67,1.57C361.03,142.67,336.07,149.26,311.16,149.26z"/>
		</g>
		<g>
			<path class="st0" d="M311.61,317.77c-27.85,0-55.63-8.24-80-24.62l-1.08-0.73c-19.93-13.4-44.39-17.19-67.12-10.4l-68.02,20.31
				c-16.82,5.03-34.54-4.54-39.56-21.37s4.54-34.54,21.37-39.56l68.02-20.31c41-12.25,85.03-5.48,120.79,18.56l1.08,0.73
				c25.69,17.27,58.19,18.31,84.82,2.69l2.67-1.57c21.92-12.86,46.84-19.69,72.06-19.75c0.12,0,0.25,0,0.37,0
				c25.1,0,49.92,6.7,71.8,19.38l2.37,1.37c26.84,15.56,59.46,14.27,85.12-3.35c35.58-24.43,79.6-31.62,120.77-19.72l69.53,20.1
				c16.87,4.88,26.59,22.51,21.71,39.37c-4.88,16.87-22.51,26.59-39.37,21.71l-69.53-20.1c-22.82-6.6-47.28-2.57-67.11,11.05
				c-22.49,15.44-48.65,24.16-75.66,25.22c-27.05,1.06-53.77-5.61-77.34-19.27l-2.37-1.37c-25.14-14.57-55.11-14.49-80.17,0.21
				l-2.67,1.57C361.47,311.18,336.51,317.77,311.61,317.77z"/>
		</g>
		<g>
			<path class="st0" d="M312.05,486.28c-27.85,0-55.63-8.24-80-24.62l-1.09-0.74c-19.92-13.39-44.38-17.18-67.11-10.4l-68.02,20.31
				c-16.83,5.02-34.54-4.54-39.56-21.37s4.54-34.54,21.37-39.56l68.02-20.31c41-12.24,85.03-5.48,120.79,18.56l1.09,0.74
				c25.69,17.27,58.19,18.3,84.81,2.69l2.67-1.57c21.92-12.86,46.84-19.69,72.06-19.75c0.12,0,0.25,0,0.37,0
				c25.1,0,49.91,6.7,71.8,19.38l2.37,1.38c26.84,15.55,59.45,14.27,85.11-3.35c35.58-24.43,79.6-31.62,120.77-19.72l69.53,20.1
				c16.87,4.88,26.59,22.51,21.71,39.37c-4.88,16.87-22.51,26.59-39.37,21.71l-69.53-20.1c-22.82-6.6-47.28-2.57-67.11,11.05
				c-22.49,15.44-48.65,24.17-75.66,25.22c-27.01,1.06-53.77-5.61-77.34-19.27l-2.37-1.38c-25.13-14.57-55.11-14.49-80.17,0.21
				l-2.67,1.57C361.91,479.69,336.95,486.28,312.05,486.28z"/>
		</g>
	</g>
	<g>
		<g>
			<linearGradient id="SVGID_1_" gradientUnits="userSpaceOnUse" x1="314.7476" y1="-64.7624" x2="523.0294" y2="373.7256">
				<stop  offset="0" style="stop-color:#004C71"/>
				<stop  offset="1" style="stop-color:#56ABD6"/>
			</linearGradient>
			<path class="st1" d="M257.11,103.69c-27.85,0-55.63-8.24-80-24.62l-1.08-0.73c-19.93-13.4-44.39-17.19-67.12-10.4L40.9,88.24
				C24.08,93.27,6.36,83.7,1.34,66.88c-5.02-16.83,4.54-34.54,21.37-39.56L90.72,7c41-12.24,85.03-5.48,120.79,18.56l1.08,0.73
				c25.7,17.28,58.2,18.31,84.82,2.69l2.67-1.57c21.92-12.86,46.84-19.69,72.07-19.76c0.12,0,0.25,0,0.37,0
				c25.1,0,49.92,6.7,71.8,19.38l2.37,1.37c26.84,15.56,59.46,14.27,85.12-3.35C567.38,0.63,611.4-6.56,652.57,5.34l69.53,20.1
				c16.87,4.88,26.59,22.51,21.71,39.37c-4.88,16.87-22.51,26.59-39.37,21.71l-69.53-20.1c-22.82-6.6-47.28-2.57-67.11,11.05
				c-22.49,15.44-48.65,24.16-75.66,25.22c-27.01,1.06-53.77-5.61-77.34-19.27l-2.37-1.37c-25.14-14.57-55.11-14.49-80.17,0.21
				l-2.67,1.57C306.98,97.1,282.02,103.69,257.11,103.69z"/>
		</g>
		<g>
			
				<linearGradient id="SVGID_00000085940607377540735320000012764607157884679068_" gradientUnits="userSpaceOnUse" x1="249.8011" y1="-33.9128" x2="458.0829" y2="404.5752">
				<stop  offset="0" style="stop-color:#004C71"/>
				<stop  offset="1" style="stop-color:#56ABD6"/>
			</linearGradient>
			<path style="fill:url(#SVGID_00000085940607377540735320000012764607157884679068_);" d="M257.56,272.2
				c-27.85,0-55.63-8.24-80-24.62l-1.08-0.73c-19.93-13.4-44.39-17.19-67.12-10.4l-68.02,20.31c-16.82,5.03-34.54-4.54-39.56-21.37
				s4.54-34.54,21.37-39.56l68.02-20.31c41-12.25,85.03-5.48,120.79,18.56l1.08,0.73c25.69,17.27,58.19,18.31,84.82,2.69l2.67-1.57
				c21.92-12.86,46.84-19.69,72.06-19.75c0.12,0,0.25,0,0.37,0c25.1,0,49.92,6.7,71.8,19.38l2.37,1.37
				c26.84,15.56,59.46,14.27,85.12-3.35c35.58-24.43,79.6-31.62,120.77-19.72l69.53,20.1c16.87,4.88,26.59,22.51,21.71,39.37
				c-4.88,16.87-22.51,26.59-39.37,21.71l-69.53-20.1c-22.82-6.6-47.28-2.57-67.11,11.05c-22.49,15.44-48.65,24.16-75.66,25.22
				c-27.05,1.06-53.77-5.61-77.34-19.27l-2.37-1.37c-25.14-14.57-55.11-14.49-80.17,0.21l-2.67,1.57
				C307.42,265.61,282.46,272.2,257.56,272.2z"/>
		</g>
		<g>
			
				<linearGradient id="SVGID_00000124876046107494061210000010745208006852619684_" gradientUnits="userSpaceOnUse" x1="184.855" y1="-3.0634" x2="393.1367" y2="435.4246">
				<stop  offset="0" style="stop-color:#004C71"/>
				<stop  offset="1" style="stop-color:#56ABD6"/>
			</linearGradient>
			<path style="fill:url(#SVGID_00000124876046107494061210000010745208006852619684_);" d="M258,440.71
				c-27.85,0-55.63-8.24-80-24.62l-1.09-0.74c-19.92-13.39-44.38-17.18-67.11-10.4l-68.02,20.31c-16.83,5.02-34.54-4.54-39.56-21.37
				s4.54-34.54,21.37-39.56l68.02-20.31c41-12.24,85.03-5.48,120.79,18.56l1.09,0.74c25.69,17.27,58.19,18.3,84.81,2.69l2.67-1.57
				c21.92-12.86,46.84-19.69,72.06-19.75c0.12,0,0.25,0,0.37,0c25.1,0,49.91,6.7,71.8,19.38l2.37,1.38
				c26.84,15.55,59.45,14.27,85.11-3.35c35.58-24.43,79.6-31.62,120.77-19.72l69.53,20.1c16.87,4.88,26.59,22.51,21.71,39.37
				c-4.88,16.87-22.51,26.59-39.37,21.71l-69.53-20.1c-22.82-6.6-47.28-2.57-67.11,11.05c-22.49,15.44-48.65,24.17-75.66,25.22
				c-27.01,1.06-53.77-5.61-77.34-19.27l-2.37-1.38c-25.13-14.57-55.11-14.49-80.17,0.21l-2.67,1.57
				C307.86,434.12,282.9,440.71,258,440.71z"/>
		</g>
	</g>
</g>
</svg>
