<?xml version="1.0" encoding="utf-8"?>
<!-- Generator: Adobe Illustrator 27.2.0, SVG Export Plug-In . SVG Version: 6.00 Build 0)  -->
<svg version="1.1" id="Capa_1" xmlns="http://www.w3.org/2000/svg" xmlns:xlink="http://www.w3.org/1999/xlink" x="0px" y="0px"
	 viewBox="0 0 800 220" style="enable-background:new 0 0 800 220;" xml:space="preserve">
<style type="text/css">
	.st0{fill:#293276;stroke:#FFFFFF;stroke-miterlimit:10;}
	.st1{fill:url(#SVGID_1_);stroke:#FDFDFC;stroke-width:5;stroke-miterlimit:10;}
	.st2{fill:none;stroke:#FFFFFF;stroke-width:2;stroke-miterlimit:10;}
	.st3{fill:none;stroke:#FFFFFF;stroke-width:3;stroke-miterlimit:10;}
	.st4{fill:#FDFDFC;}
</style>
<g>
	<path class="st0" d="M153.86,22.37"/>
	<linearGradient id="SVGID_1_" gradientUnits="userSpaceOnUse" x1="47.6746" y1="110" x2="232.2107" y2="110">
		<stop  offset="0" style="stop-color:#00658F"/>
		<stop  offset="0.1644" style="stop-color:#247B9F"/>
		<stop  offset="0.5317" style="stop-color:#81B3C7"/>
		<stop  offset="1" style="stop-color:#FFFFFF"/>
	</linearGradient>
	<polygon class="st1" points="232.21,65.67 153.86,22.37 129.46,43.22 47.67,113.09 171.39,197.63 168.29,136.8 223.96,131.65 	"/>
	<line class="st2" x1="166.1" y1="82.47" x2="129.46" y2="43.22"/>
	<polyline class="st2" points="176.83,35.73 193.88,59.1 221.04,59.73 	"/>
	<polyline class="st2" points="146.52,93.84 116.83,91.94 93.46,76.78 	"/>
	<polyline class="st2" points="75.78,88.78 102.31,100.78 146.52,93.84 164.83,84.36 190.73,78.68 232.21,65.67 	"/>
	<polyline class="st2" points="56.2,105.84 140.2,115.94 180.62,107.1 	"/>
	<polyline class="st2" points="190.73,78.68 206.52,108.36 224.2,117.84 	"/>
	<polyline class="st2" points="140.2,115.94 134.52,134.89 106.1,153.84 	"/>
	<polyline class="st2" points="195.78,88.78 180.62,107.1 168.29,136.8 	"/>
	<polyline class="st2" points="168.62,194.89 149.04,153.2 134.52,134.89 	"/>
	<line class="st3" x1="135.15" y1="174.05" x2="149.04" y2="153.2"/>
	<line class="st2" x1="179.99" y1="134.89" x2="206.52" y2="108.36"/>
</g>
<g>
	<g>
		<path class="st4" d="M264.34,32.83l9.16,33.27l9.06-33.27h4.84L275.76,71.9h-4.58l-11.62-39.07H264.34z"/>
		<path class="st4" d="M293.24,43.42v18.91c0,1.45,0.19,2.64,0.56,3.56c0.7,1.7,1.99,2.55,3.89,2.55c2.72,0,4.57-1.49,5.56-4.47
			c0.54-1.6,0.8-3.79,0.8-6.57V43.42h3.91V71.9h-3.69l0.04-4.2c-0.51,1.08-1.14,1.99-1.89,2.74c-1.49,1.49-3.3,2.23-5.43,2.23
			c-3.32,0-5.57-1.36-6.78-4.07c-0.65-1.45-0.98-3.4-0.98-5.82V43.42H293.24z"/>
		<path class="st4" d="M314.18,32.83h3.91V71.9h-3.91V32.83z"/>
		<path class="st4" d="M323.95,43.42h3.71v4.04c1.1-1.67,2.27-2.86,3.5-3.59s2.6-1.09,4.1-1.09c3.3,0,5.53,1.41,6.69,4.23
			c0.64,1.54,0.96,3.75,0.96,6.62V71.9h-3.97V53.95c0-1.74-0.21-3.14-0.63-4.2c-0.7-1.77-1.95-2.66-3.78-2.66
			c-0.93,0-1.69,0.12-2.28,0.35c-1.07,0.39-2.01,1.17-2.82,2.34c-0.65,0.94-1.07,1.91-1.27,2.91c-0.2,1-0.29,2.43-0.29,4.3V71.9
			h-3.91V43.42z"/>
		<path class="st4" d="M363.17,44.2c1.55,0.95,2.73,2.18,3.54,3.68c0.78,1.44,1.3,3.11,1.56,5.03c0.23,1.31,0.35,3.4,0.35,6.28
			h-17.05c0.07,2.89,0.63,5.21,1.67,6.96c1.04,1.75,2.66,2.62,4.84,2.62c2.04,0,3.67-0.82,4.89-2.47c0.69-0.96,1.19-2.07,1.48-3.32
			h3.84c-0.1,1.05-0.44,2.21-1.01,3.5s-1.21,2.34-1.92,3.15c-1.19,1.42-2.66,2.38-4.41,2.87c-0.94,0.28-2.01,0.43-3.19,0.43
			c-2.9,0-5.35-1.29-7.36-3.87c-2.01-2.58-3.02-6.19-3.02-10.84c0-4.57,1.01-8.29,3.04-11.14c2.03-2.85,4.68-4.28,7.95-4.28
			C360.02,42.78,361.62,43.25,363.17,44.2z M364.6,55.38c-0.16-2.07-0.53-3.73-1.11-4.97c-1.07-2.3-2.86-3.46-5.36-3.46
			c-1.8,0-3.3,0.79-4.52,2.38c-1.22,1.59-1.86,3.6-1.93,6.05H364.6z"/>
		<path class="st4" d="M373.53,43.42h3.71v4.92c0.3-0.96,1.05-2.12,2.24-3.5s2.56-2.06,4.1-2.06c0.07,0,0.2,0.01,0.37,0.03
			s0.47,0.05,0.89,0.11v5.05c-0.23-0.05-0.44-0.09-0.64-0.11c-0.2-0.02-0.41-0.03-0.64-0.03c-1.97,0-3.48,0.78-4.54,2.33
			c-1.06,1.55-1.58,3.34-1.58,5.36V71.9h-3.91V43.42z"/>
		<path class="st4" d="M400.69,54.64c0.9-0.14,1.5-0.6,1.8-1.38c0.17-0.43,0.26-1.04,0.26-1.84c0-1.63-0.47-2.81-1.42-3.55
			c-0.95-0.74-2.31-1.1-4.07-1.1c-2.04,0-3.49,0.67-4.34,2.02c-0.48,0.74-0.79,1.85-0.93,3.32h-3.65c0.07-3.51,1-5.95,2.79-7.33
			s3.86-2.06,6.22-2.06c2.74,0,4.96,0.64,6.67,1.92c1.69,1.28,2.54,3.26,2.54,5.96v16.41c0,0.5,0.08,0.9,0.25,1.2
			c0.17,0.3,0.52,0.45,1.05,0.45c0.17,0,0.37-0.01,0.59-0.04c0.22-0.03,0.45-0.07,0.7-0.12v3.54c-0.61,0.21-1.07,0.35-1.39,0.4
			c-0.32,0.05-0.75,0.08-1.3,0.08c-1.35,0-2.33-0.59-2.93-1.76c-0.32-0.62-0.54-1.5-0.67-2.63c-0.8,1.28-1.94,2.39-3.43,3.32
			s-3.13,1.41-4.93,1.41c-2.16,0-3.92-0.8-5.29-2.41s-2.05-3.61-2.05-6.02c0-2.64,0.67-4.69,2.02-6.14c1.35-1.45,3.11-2.35,5.3-2.69
			L400.69,54.64z M392.46,67.59c0.83,0.8,1.8,1.2,2.93,1.2c1.38,0,2.71-0.39,4-1.17c2.17-1.29,3.26-3.41,3.26-6.36v-3.86
			c-0.48,0.37-1.09,0.68-1.85,0.93c-0.75,0.25-1.49,0.43-2.22,0.53l-2.37,0.37c-1.42,0.23-2.48,0.59-3.19,1.09
			c-1.2,0.83-1.8,2.16-1.8,3.99C391.23,65.7,391.64,66.79,392.46,67.59z"/>
		<path class="st4" d="M412.66,32.7h3.8v14.18c0.85-1.37,1.87-2.41,3.06-3.13c1.19-0.72,2.48-1.08,3.87-1.08
			c2.9,0,5.25,1.22,7.05,3.66c1.8,2.44,2.7,6.03,2.7,10.79c0,4.5-0.89,8.24-2.67,11.22c-1.78,2.98-4.25,4.47-7.41,4.47
			c-1.77,0-3.26-0.52-4.47-1.57c-0.72-0.62-1.5-1.61-2.32-2.98v3.64h-3.6V32.7z M427.57,65.49c1.05-2.06,1.57-4.77,1.57-8.14
			c0-3-0.52-5.48-1.57-7.45s-2.59-2.95-4.64-2.95c-1.78,0-3.34,0.81-4.68,2.42c-1.34,1.61-2.01,4.27-2.01,7.98
			c0,2.68,0.28,4.85,0.83,6.52c1.03,3.14,2.95,4.71,5.75,4.71C424.94,68.58,426.52,67.55,427.57,65.49z"/>
		<path class="st4" d="M437.7,32.83h3.97v5.43h-3.97V32.83z M437.7,43.55h3.97V71.9h-3.97V43.55z"/>
		<path class="st4" d="M447.69,32.83h3.91V71.9h-3.91V32.83z"/>
		<path class="st4" d="M457.46,32.83h3.97v5.43h-3.97V32.83z M457.46,43.55h3.97V71.9h-3.97V43.55z"/>
		<path class="st4" d="M480.18,44.29c0.69,0.53,1.48,1.46,2.37,2.79V32.7h3.76v39.2h-3.52v-3.96c-0.91,1.76-1.99,3.02-3.24,3.8
			c-1.25,0.78-2.67,1.17-4.28,1.17c-2.59,0-4.84-1.33-6.73-4c-1.9-2.67-2.84-6.22-2.84-10.65c0-4.15,0.87-7.74,2.6-10.79
			c1.73-3.04,4.2-4.56,7.42-4.56C477.48,42.91,478.97,43.37,480.18,44.29z M471.4,65.65c1.06,2.06,2.75,3.08,5.08,3.08
			c1.81,0,3.3-0.95,4.46-2.86s1.75-4.64,1.75-8.21c0-3.6-0.6-6.26-1.8-7.99c-1.2-1.73-2.69-2.59-4.45-2.59
			c-1.97,0-3.57,0.92-4.79,2.77c-1.22,1.84-1.83,4.56-1.83,8.14C469.82,61.04,470.34,63.59,471.4,65.65z"/>
		<path class="st4" d="M504.54,54.64c0.9-0.14,1.5-0.6,1.8-1.38c0.17-0.43,0.26-1.04,0.26-1.84c0-1.63-0.47-2.81-1.42-3.55
			c-0.95-0.74-2.31-1.1-4.07-1.1c-2.04,0-3.49,0.67-4.34,2.02c-0.48,0.74-0.79,1.85-0.93,3.32h-3.65c0.07-3.51,1-5.95,2.79-7.33
			s3.86-2.06,6.22-2.06c2.74,0,4.96,0.64,6.67,1.92c1.69,1.28,2.54,3.26,2.54,5.96v16.41c0,0.5,0.08,0.9,0.25,1.2
			c0.17,0.3,0.52,0.45,1.05,0.45c0.17,0,0.37-0.01,0.59-0.04c0.22-0.03,0.45-0.07,0.7-0.12v3.54c-0.61,0.21-1.07,0.35-1.39,0.4
			c-0.32,0.05-0.75,0.08-1.3,0.08c-1.35,0-2.32-0.59-2.93-1.76c-0.32-0.62-0.54-1.5-0.67-2.63c-0.8,1.28-1.94,2.39-3.43,3.32
			c-1.49,0.94-3.13,1.41-4.93,1.41c-2.16,0-3.92-0.8-5.29-2.41s-2.05-3.61-2.05-6.02c0-2.64,0.67-4.69,2.02-6.14
			c1.35-1.45,3.11-2.35,5.3-2.69L504.54,54.64z M496.31,67.59c0.83,0.8,1.8,1.2,2.93,1.2c1.38,0,2.71-0.39,4-1.17
			c2.17-1.29,3.26-3.41,3.26-6.36v-3.86c-0.48,0.37-1.09,0.68-1.85,0.93c-0.75,0.25-1.49,0.43-2.21,0.53l-2.37,0.37
			c-1.42,0.23-2.48,0.59-3.19,1.09c-1.2,0.83-1.8,2.16-1.8,3.99C495.07,65.7,495.49,66.79,496.31,67.59z"/>
		<path class="st4" d="M529.65,44.29c0.69,0.53,1.48,1.46,2.37,2.79V32.7h3.76v39.2h-3.52v-3.96c-0.91,1.76-1.99,3.02-3.24,3.8
			c-1.25,0.78-2.67,1.17-4.28,1.17c-2.59,0-4.84-1.33-6.73-4c-1.9-2.67-2.84-6.22-2.84-10.65c0-4.15,0.87-7.74,2.6-10.79
			c1.73-3.04,4.2-4.56,7.42-4.56C526.95,42.91,528.44,43.37,529.65,44.29z M520.87,65.65c1.06,2.06,2.75,3.08,5.08,3.08
			c1.81,0,3.3-0.95,4.46-2.86s1.75-4.64,1.75-8.21c0-3.6-0.6-6.26-1.8-7.99c-1.2-1.73-2.69-2.59-4.45-2.59
			c-1.97,0-3.57,0.92-4.79,2.77c-1.22,1.84-1.83,4.56-1.83,8.14C519.29,61.04,519.81,63.59,520.87,65.65z"/>
		<path class="st4" d="M568.43,43.42h4.32c-0.55,1.83-1.77,5.99-3.67,12.5c-1.42,4.89-2.61,8.88-3.56,11.97
			c-2.26,7.27-3.85,11.7-4.78,13.3s-2.52,2.39-4.78,2.39c-0.55,0-0.97-0.03-1.27-0.08s-0.66-0.15-1.1-0.29v-4.36
			c0.68,0.23,1.17,0.37,1.48,0.43s0.57,0.08,0.8,0.08c0.72,0,1.26-0.15,1.6-0.44c0.34-0.29,0.63-0.65,0.86-1.08
			c0.07-0.14,0.33-0.87,0.78-2.18c0.45-1.31,0.77-2.29,0.98-2.93l-8.6-29.31h4.43l6.23,23.19L568.43,43.42z"/>
	</g>
	<g>
		<path class="st4" d="M261.03,121.09V87.68h8.42c2.77,0,4.76,0.13,6.01,0.39c1.25,0.28,2.27,0.74,3.04,1.39
			c1.83,1.56,2.72,3.82,2.72,6.97c0,3.84-1.25,6.38-3.97,8.05c2.31,1.06,3.54,3.6,3.66,7.62v0.11c0.02,0.41,0.02,1.02,0.04,1.82
			c0.06,3.75,0.64,6.12,1.79,7.07h-8.76c-0.4-1.39-0.56-2.89-0.56-4.62c0-0.54,0.02-1.19,0.04-1.95c0.02-0.76,0.04-1.24,0.04-1.48
			c0-2.04-0.25-3.43-0.77-4.19c-0.52-0.76-1.44-1.13-2.77-1.13h-1.54v13.37H261.03z M268.44,101.59c0.25,0,0.75,0.04,0.94,0.04
			c3.1,0,4.26-1.17,4.26-4.27c0-2.86-1.16-3.95-4.26-3.95c-0.19,0-0.69,0.04-0.94,0.04V101.59z"/>
		<path class="st4" d="M302.69,112.28v0.63c0,5.88-2.95,8.85-8.78,8.85c-2.93,0-5.45-0.91-6.78-2.45c-0.75-0.89-1.29-2.06-1.6-3.51
			s-0.48-3.8-0.48-7.01c0-3.54,0.17-6.01,0.5-7.42c0.31-1.41,0.87-2.56,1.66-3.47c1.52-1.71,3.89-2.58,6.99-2.58
			c3.16,0,5.47,0.96,6.9,2.8c0.6,0.78,1.04,1.71,1.31,2.8c0.27,1.08,0.4,2.93,0.4,5.55v3.02h-10.94c-0.02,0.06-0.02,0.17-0.02,0.28
			c-0.06,1.06-0.08,1.8-0.08,2.21c0,1.76,0.19,3,0.54,3.67c0.35,0.69,0.98,1.04,1.85,1.04c1.52,0,2.31-1.04,2.31-3.19
			c0-0.22-0.02-0.54-0.06-1c-0.02-0.09-0.02-0.15-0.02-0.22H302.69z M296.55,105.14v-0.13c0.06-0.63,0.08-1.08,0.08-1.35
			c0-2.45-0.75-3.6-2.35-3.6c-1.64,0-2.29,1.06-2.29,3.69c0,0.72,0.02,1.06,0.04,1.39H296.55z"/>
		<path class="st4" d="M306.73,121.09V87.68h6.7v10.98c1.14-2.1,2.91-3.17,5.41-3.17c3.72,0,5.37,2.47,5.37,8.09v17.51h-6.68v-15.51
			c0-2.02-0.12-3.25-0.37-3.75c-0.25-0.5-0.69-0.74-1.33-0.74c-1.5,0-2.39,1.61-2.39,4.32v15.69H306.73z"/>
		<path class="st4" d="M340,121.09l-0.4-2.3c-1.68,1.84-3.7,2.8-6.05,2.8c-1.89,0-3.37-0.63-4.47-1.91
			c-1.1-1.28-1.66-2.99-1.66-5.16c0-1.89,0.48-3.45,1.41-4.69c0.94-1.24,2.45-2.3,4.6-3.19c0.52-0.2,1.21-0.48,2.08-0.8
			c2.52-0.95,3.76-2.04,3.76-3.23c0-1.48-0.75-2.26-2.1-2.26c-1.64,0-2.41,1-2.41,3.15v0.17h-6.74c0-5.66,2.99-8.4,9.15-8.4
			c2.77,0,4.97,0.54,6.45,1.56c0.94,0.67,1.6,1.48,2,2.41c0.37,0.93,0.56,2.65,0.56,5.14v0.76v8.92c0,1.97,0.06,3.47,0.21,4.49
			c0.12,1.04,0.33,1.89,0.64,2.54H340z M339.15,109.01c-3.47,1.02-4.99,2.45-4.99,4.71c0,1.58,0.85,2.62,2.18,2.62
			c1.98,0,2.81-1.26,2.81-4.53V109.01z"/>
		<path class="st4" d="M350.65,87.68h6.72v10.61c1.23-1.97,2.72-2.89,4.74-2.89c2.37,0,4.01,0.89,4.93,2.67
			c0.92,1.8,1.37,5.53,1.37,11.2c0,2.62-0.06,4.64-0.21,6.03s-0.35,2.41-0.64,3.08c-1,2.26-2.79,3.43-5.28,3.43
			c-2.27,0-4.14-1.21-5.41-3.47v2.76h-6.22V87.68z M357.74,102.56c-0.33,0.8-0.5,2.28-0.5,4.4c0,4.15,0.17,6.68,0.52,7.66
			c0.33,0.98,0.94,1.45,1.83,1.45c0.75,0,1.27-0.37,1.56-1.11c0.29-0.74,0.44-2.43,0.44-5.08v-0.67c0-3.54-0.15-5.75-0.46-6.6
			s-0.87-1.26-1.73-1.26C358.62,101.37,358.06,101.76,357.74,102.56z"/>
		<path class="st4" d="M372.47,93.49v-6.08h6.68v6.08H372.47z M372.47,121.09v-25.1h6.68v25.1H372.47z"/>
		<path class="st4" d="M390.4,121.09h-6.68V87.68h6.68V121.09z"/>
		<path class="st4" d="M394.97,93.49v-6.08h6.68v6.08H394.97z M394.97,121.09v-25.1h6.68v25.1H394.97z"/>
		<path class="st4" d="M417.04,121.01c-1.64,0.33-2.85,0.48-3.7,0.48c-2.66,0-4.58-0.93-5.47-2.6c-0.29-0.59-0.5-1.3-0.6-2.19
			c-0.12-0.87-0.19-2.19-0.19-3.99v-3.1v-8.42h-2.6v-5.19h2.6v-6.94h6.76v6.94h3.2v5.19h-3.2v10.24c0,2.19,0.15,3.54,0.46,4.04
			c0.31,0.5,0.89,0.76,1.77,0.76c0.15,0,0.39-0.02,0.75-0.07c0.1-0.02,0.17-0.02,0.23-0.02V121.01z"/>
		<path class="st4" d="M431.91,121.09l-0.39-2.3c-1.68,1.84-3.7,2.8-6.05,2.8c-1.89,0-3.37-0.63-4.47-1.91
			c-1.1-1.28-1.66-2.99-1.66-5.16c0-1.89,0.48-3.45,1.41-4.69s2.45-2.3,4.6-3.19c0.52-0.2,1.21-0.48,2.08-0.8
			c2.52-0.95,3.76-2.04,3.76-3.23c0-1.48-0.75-2.26-2.1-2.26c-1.64,0-2.41,1-2.41,3.15v0.17h-6.74c0-5.66,3-8.4,9.15-8.4
			c2.77,0,4.97,0.54,6.45,1.56c0.94,0.67,1.6,1.48,2,2.41c0.38,0.93,0.56,2.65,0.56,5.14v0.76v8.92c0,1.97,0.06,3.47,0.21,4.49
			c0.12,1.04,0.33,1.89,0.65,2.54H431.91z M431.06,109.01c-3.47,1.02-4.99,2.45-4.99,4.71c0,1.58,0.85,2.62,2.18,2.62
			c1.98,0,2.81-1.26,2.81-4.53V109.01z"/>
		<path class="st4" d="M459.43,111.22c0,0.26,0.04,0.78,0.04,0.98c0,6.42-2.83,9.57-8.65,9.57c-3.29,0-5.59-0.98-6.93-2.93
			c-1.35-1.93-2.02-5.36-2.02-10.28s0.67-8.35,2.02-10.31c1.35-1.95,3.66-2.93,6.93-2.93c5.89,0,8.57,3.04,8.57,9.7v0.43h-6.49
			v-0.72c0-3.02-0.56-4.17-2.04-4.17c-0.85,0-1.41,0.43-1.71,1.28c-0.31,0.85-0.46,3.08-0.46,6.7c0,3.47,0.15,5.69,0.46,6.62
			c0.29,0.95,0.85,1.43,1.66,1.43c1.41,0,2.04-1.28,2.04-4.21c0-0.24-0.04-0.89-0.04-1.17H459.43z"/>
		<path class="st4" d="M463.57,93.49v-6.08h6.68v6.08H463.57z M463.57,121.09v-25.1h6.68v25.1H463.57z"/>
		<path class="st4" d="M476.19,98.27c1.35-1.97,3.66-2.95,6.93-2.95c3.26,0,5.57,0.98,6.93,2.93c1.35,1.95,2.02,5.38,2.02,10.31
			c0,4.88-0.67,8.31-2.02,10.26c-1.35,1.97-3.66,2.95-6.93,2.95c-3.29,0-5.59-0.98-6.93-2.93c-1.35-1.93-2.02-5.36-2.02-10.28
			C474.17,103.67,474.84,100.24,476.19,98.27z M479.87,93.32l4.14-6.18h6.13l-7.28,6.18H479.87z M481.45,115.17
			c0.29,0.89,0.85,1.34,1.66,1.34c0.81,0,1.37-0.43,1.68-1.28c0.29-0.85,0.44-3.08,0.44-6.68s-0.15-5.84-0.44-6.7
			c-0.31-0.85-0.87-1.28-1.68-1.28c-0.81,0-1.37,0.46-1.66,1.35c-0.31,0.89-0.46,3.1-0.46,6.64S481.14,114.28,481.45,115.17z"/>
		<path class="st4" d="M496.03,121.09v-25.1h6.3v2.97c1.48-2.37,3.31-3.47,5.82-3.47c3.72,0,5.37,2.47,5.37,8.09v17.51h-6.68v-15.51
			c0-2.02-0.12-3.25-0.37-3.75c-0.25-0.5-0.69-0.74-1.33-0.74c-1.5,0-2.39,1.61-2.39,4.32v15.69H496.03z"/>
		<path class="st4" d="M546.72,87.68v33.42h-6.18v-2.76c-1.27,2.26-3.16,3.47-5.41,3.47c-1.89,0-3.45-0.74-4.51-2.04
			c-0.6-0.78-1.02-1.82-1.25-3.15c-0.25-1.3-0.37-3.75-0.37-7.36c0-5.66,0.46-9.4,1.37-11.2c0.92-1.78,2.56-2.67,4.93-2.67
			c2.02,0,3.49,0.91,4.72,2.89V87.68H546.72z M536.26,102.74c-0.31,0.91-0.48,2.93-0.48,6.05c0,3.25,0.15,5.27,0.44,6.08
			c0.29,0.8,0.83,1.22,1.6,1.22c0.89,0,1.5-0.48,1.85-1.45c0.33-0.98,0.5-3.51,0.5-7.66c0-2.13-0.17-3.6-0.48-4.4
			c-0.33-0.8-0.89-1.19-1.71-1.19C537.13,101.37,536.57,101.83,536.26,102.74z"/>
		<path class="st4" d="M568.33,112.28v0.63c0,5.88-2.95,8.85-8.78,8.85c-2.93,0-5.45-0.91-6.78-2.45c-0.75-0.89-1.29-2.06-1.6-3.51
			c-0.31-1.45-0.48-3.8-0.48-7.01c0-3.54,0.17-6.01,0.5-7.42c0.31-1.41,0.87-2.56,1.66-3.47c1.52-1.71,3.89-2.58,6.99-2.58
			c3.16,0,5.47,0.96,6.91,2.8c0.6,0.78,1.04,1.71,1.31,2.8c0.27,1.08,0.39,2.93,0.39,5.55v3.02h-10.94
			c-0.02,0.06-0.02,0.17-0.02,0.28c-0.06,1.06-0.08,1.8-0.08,2.21c0,1.76,0.19,3,0.54,3.67c0.35,0.69,0.98,1.04,1.85,1.04
			c1.52,0,2.31-1.04,2.31-3.19c0-0.22-0.02-0.54-0.06-1c-0.02-0.09-0.02-0.15-0.02-0.22H568.33z M562.19,105.14v-0.13
			c0.06-0.63,0.08-1.08,0.08-1.35c0-2.45-0.75-3.6-2.35-3.6c-1.64,0-2.29,1.06-2.29,3.69c0,0.72,0.02,1.06,0.04,1.39H562.19z"/>
		<path class="st4" d="M590.6,121.09h-6.68V87.68h6.68V121.09z"/>
		<path class="st4" d="M606.8,121.09l-0.39-2.3c-1.68,1.84-3.7,2.8-6.05,2.8c-1.89,0-3.37-0.63-4.47-1.91
			c-1.1-1.28-1.66-2.99-1.66-5.16c0-1.89,0.48-3.45,1.41-4.69s2.45-2.3,4.6-3.19c0.52-0.2,1.21-0.48,2.08-0.8
			c2.52-0.95,3.76-2.04,3.76-3.23c0-1.48-0.75-2.26-2.1-2.26c-1.64,0-2.41,1-2.41,3.15v0.17h-6.74c0-5.66,3-8.4,9.15-8.4
			c2.77,0,4.97,0.54,6.45,1.56c0.94,0.67,1.6,1.48,2,2.41c0.38,0.93,0.56,2.65,0.56,5.14v0.76v8.92c0,1.97,0.06,3.47,0.21,4.49
			c0.12,1.04,0.33,1.89,0.65,2.54H606.8z M605.95,109.01c-3.47,1.02-4.99,2.45-4.99,4.71c0,1.58,0.85,2.62,2.18,2.62
			c1.98,0,2.81-1.26,2.81-4.53V109.01z"/>
	</g>
	<g>
		<path class="st4" d="M288.37,160.46c-0.28,4.56-1.74,8.68-3.52,11.1c-3.12,4.34-7.94,4.56-10.49,4.56
			c-2.96,0-7.05-0.39-10.21-4.51c-1.99-2.59-4.09-7.72-4.09-15.95c0-7.5,1.74-12.57,4.21-15.95c3.24-4.34,7.25-5.18,10.65-5.18
			c4.7,0,7.86,1.86,9.93,4.79c0.32,0.45,2.84,4.11,3.28,10.48h-8.55c-0.16-1.52-0.69-2.71-1.34-3.55c-0.97-1.13-2.27-1.24-3.04-1.24
			c-1.34,0-2.75,0.34-3.93,1.97c-1.62,2.25-1.82,5.92-1.82,8.34c0,2.65,0.24,5.69,1.58,8c1.26,2.08,2.67,2.25,3.93,2.25
			s2.31-0.23,3.4-1.52c1.01-1.3,1.26-2.76,1.38-3.61H288.37z"/>
		<path class="st4" d="M306.56,171.84h-0.2c-2.23,3.32-4.86,3.94-7.01,3.94c-1.74,0-3.81-0.34-5.39-2.54
			c-2.15-2.82-2.15-7.44-2.15-9.75v-17.13h8.51v15.38c0,2.54,0.36,3.72,0.69,4.34c0.53,1.07,1.26,1.24,2.03,1.24
			c0.89,0,1.58-0.45,2.07-1.41c0.77-1.41,0.85-3.27,0.85-4.34v-15.21h8.51V175h-7.9V171.84z"/>
		<path class="st4" d="M341.8,166.71c-0.61,2.42-1.66,5.18-4.09,7.16c-2.59,2.08-5.35,2.14-7.49,2.14c-3.24,0-6.56-0.39-9.12-3.95
			c-1.58-2.2-2.8-5.75-2.8-10.54c0-4.56,1.13-8.68,3.08-11.55c2.55-3.66,5.71-4.62,8.91-4.62c4.7,0,7.41,1.97,8.99,4.23
			c2.8,4,2.84,9.41,2.84,12.79v0.68h-15.11c-0.04,1.52,0.24,3.27,0.77,4.34c0.53,0.96,1.34,1.63,2.59,1.63
			c0.61,0,1.42-0.11,2.03-0.56c0.65-0.51,0.93-1.13,1.05-1.75H341.8z M333.37,157.41c0-1.3-0.28-2.99-0.89-3.83
			c-0.61-0.96-1.42-1.18-2.11-1.18c-0.85,0-1.7,0.28-2.31,1.24c-0.65,0.96-0.97,2.59-1.01,3.78H333.37z"/>
		<path class="st4" d="M354.11,149.41h0.16c0.65-1.07,1.5-2.03,2.63-2.76c1.42-0.9,2.71-1.13,3.97-1.13c1.82,0,3.93,0.39,5.67,2.65
			c1.82,2.48,2.11,5.64,2.11,9.64V175h-8.51v-15.33c0-2.65-0.45-3.78-0.65-4.23c-0.45-0.96-1.09-1.46-1.94-1.46
			c-0.77,0-1.62,0.34-2.27,1.63c-0.85,1.63-0.81,3.83-0.81,4.17V175h-8.51v-28.63h8.14V149.41z"/>
		<path class="st4" d="M395.43,163.72c-0.28,3.78-1.5,6.48-2.75,8.23c-2.67,3.72-6.16,4.06-8.79,4.06s-5.91-0.45-8.43-3.78
			c-1.42-1.8-2.96-5.35-2.96-10.88c0-5.41,1.54-9.41,3.32-11.89c2.59-3.44,5.83-4.28,8.63-4.28c4.33,0,6.85,2.03,8.3,4.06
			c1.26,1.8,2.35,4.62,2.51,8.23h-7.82c0-1.13-0.2-2.76-0.97-3.83c-0.53-0.73-1.17-1.01-1.94-1.01c-0.85,0-1.54,0.39-2.07,1.18
			c-1.09,1.58-1.22,4.34-1.22,6.59c0,1.63,0.04,5.13,1.26,6.99c0.61,0.96,1.3,1.18,2.07,1.18c0.61,0,1.34-0.11,1.94-0.96
			c0.65-0.96,0.97-2.71,0.97-3.89H395.43z"/>
		<path class="st4" d="M398.75,156.12c0.16-2.76,0.97-5.07,2.07-6.65c2.27-3.32,6-3.83,8.67-3.83c1.99,0,6.12,0.17,8.51,3.32
			c1.9,2.54,2.11,5.92,2.11,8.17v12.9c0,2.03,0.08,2.76,0.28,3.27c0.2,0.62,0.61,1.01,1.13,1.3V175h-9.16l-0.53-3.1h-0.08
			c-0.65,1.07-1.54,2.08-2.51,2.76c-1.5,1.07-3.2,1.35-4.62,1.35c-1.62,0-3.69-0.23-5.19-2.2c-0.81-1.07-1.74-2.99-1.74-6.2
			c0-2.2,0.41-4,1.54-5.58c1.62-2.25,3.89-2.82,5.55-3.1l2.43-0.39c2.31-0.39,3.16-0.51,3.77-1.24c0.28-0.39,0.61-1.07,0.61-2.14
			c0-0.96-0.24-1.58-0.53-1.86c-0.61-0.73-1.5-0.79-1.78-0.79c-0.93,0-1.54,0.39-1.9,0.9c-0.45,0.62-0.69,1.63-0.65,2.7H398.75z
			 M411.59,162.03c-0.93,0.9-1.58,1.07-2.43,1.24c-0.69,0.17-1.74,0.28-2.43,1.35c-0.32,0.51-0.49,1.07-0.49,1.8
			c0,0.85,0.24,1.46,0.53,1.86c0.45,0.62,0.97,0.73,1.42,0.73c0.93,0,1.66-0.34,2.31-1.3c1.01-1.52,1.09-3.44,1.09-4.96V162.03z"/>
		<path class="st4" d="M449.18,175v-2.76h-0.16c-1.98,3.38-4.78,3.78-6.48,3.78c-1.99,0-4.58-0.51-6.73-3.61
			c-1.5-2.2-2.83-5.8-2.83-11.04c0-4.96,1.17-9.47,3-12.17c1.9-2.87,4.17-3.83,6.89-3.83c3.48,0,5.06,1.97,5.91,3.44v-13.24h8.51
			V175H449.18z M447.88,154.82c-0.49-0.73-1.3-1.46-2.55-1.46c-0.81,0-1.62,0.34-2.31,1.3c-1.17,1.63-1.3,4.73-1.3,6.31
			c0,3.44,0.69,5.24,1.46,6.31c0.53,0.68,1.21,1.3,2.31,1.3c1.01,0,1.78-0.45,2.39-1.41c1.09-1.75,1.21-4.34,1.21-6.54
			C449.1,158.65,448.98,156.4,447.88,154.82z"/>
		<path class="st4" d="M484.62,166.71c-0.61,2.42-1.66,5.18-4.09,7.16c-2.59,2.08-5.35,2.14-7.5,2.14c-3.24,0-6.56-0.39-9.12-3.95
			c-1.58-2.2-2.79-5.75-2.79-10.54c0-4.56,1.13-8.68,3.08-11.55c2.55-3.66,5.71-4.62,8.91-4.62c4.7,0,7.41,1.97,8.99,4.23
			c2.8,4,2.84,9.41,2.84,12.79v0.68h-15.11c-0.04,1.52,0.24,3.27,0.77,4.34c0.53,0.96,1.34,1.63,2.59,1.63
			c0.61,0,1.42-0.11,2.03-0.56c0.65-0.51,0.93-1.13,1.05-1.75H484.62z M476.2,157.41c0-1.3-0.28-2.99-0.89-3.83
			c-0.61-0.96-1.42-1.18-2.11-1.18c-0.85,0-1.7,0.28-2.31,1.24c-0.65,0.96-0.97,2.59-1.01,3.78H476.2z"/>
		<path class="st4" d="M497.3,135.55V175h-8.51v-39.45H497.3z"/>
		<path class="st4" d="M512.81,135.55h16c1.82,0,4.74,0.34,7.01,3.21c1.95,2.54,2.43,5.86,2.43,9.02c0,2.48-0.36,5.02-1.86,7.1
			c-0.65,0.85-1.46,1.63-2.55,2.03v0.28c1.26,0.45,2.23,1.46,2.88,2.65c1.09,1.97,1.09,3.94,1.13,6.14l0.08,3.21
			c0.04,2.08,0.08,3.61,1.01,5.8h-9.03c-0.93-1.86-0.93-3.1-0.97-4.85l-0.08-2.37c0-1.63,0.04-3.94-1.01-5.24
			c-0.81-1.07-2.15-1.18-3.12-1.18h-3.08V175h-8.83V135.55z M521.64,152.91h4.98c0.61,0,1.58-0.06,2.35-0.96
			c0.45-0.51,0.89-1.46,0.89-3.04c0-0.84-0.12-1.92-0.77-2.76c-0.77-0.96-1.86-1.01-2.51-1.01h-4.94V152.91z"/>
		<path class="st4" d="M551.7,146.37V175h-8.51v-28.63H551.7z M554.01,135.55l-4.54,7.44h-5.79l2.67-7.44H554.01z"/>
		<path class="st4" d="M576.49,171.9c-2.79,3.89-6.64,4.11-9.32,4.11c-2.92,0-6.12-0.39-8.59-3.55c-1.5-1.86-3.04-5.3-3.04-11.16
			c0-5.69,1.58-9.3,3.08-11.38c2.8-4.06,6.2-4.56,9.03-4.56c2.51,0,6.08,0.51,8.87,4.11c1.66,2.2,3.08,5.75,3.08,11.16
			C579.61,166.2,577.99,169.98,576.49,171.9z M565.59,153.92c-0.49,0.73-1.3,2.42-1.3,6.76c0,2.37,0.37,5.35,1.26,6.76
			c0.61,0.9,1.26,1.13,1.94,1.13c0.77,0,1.42-0.28,2.03-1.13c1.34-1.97,1.34-6.25,1.34-6.76c0-1.97-0.2-5.13-1.3-6.82
			c-0.61-0.84-1.13-1.07-1.9-1.07C566.81,152.79,566.2,153.07,565.59,153.92z"/>
		<path class="st4" d="M608.12,135.55c2.63,0,5.91,0.56,8.39,3.72c2.43,3.21,2.71,7.5,2.71,10.2c0,2.59-0.2,7.33-2.67,10.59
			c-2.71,3.61-6.24,3.55-8.43,3.55h-5.59V175h-8.83v-39.45H608.12z M602.53,154.15h4.21c0.77,0,1.94,0,2.8-1.13
			c0.45-0.62,0.81-1.63,0.81-3.16c0-1.35-0.36-2.2-0.73-2.65c-0.77-0.96-2.07-1.01-2.88-1.01h-4.21V154.15z"/>
		<path class="st4" d="M621.04,156.12c0.16-2.76,0.97-5.07,2.07-6.65c2.27-3.32,6-3.83,8.67-3.83c1.98,0,6.12,0.17,8.51,3.32
			c1.9,2.54,2.11,5.92,2.11,8.17v12.9c0,2.03,0.08,2.76,0.28,3.27c0.2,0.62,0.61,1.01,1.13,1.3V175h-9.16l-0.53-3.1h-0.08
			c-0.65,1.07-1.54,2.08-2.51,2.76c-1.5,1.07-3.2,1.35-4.62,1.35c-1.62,0-3.69-0.23-5.19-2.2c-0.81-1.07-1.74-2.99-1.74-6.2
			c0-2.2,0.4-4,1.54-5.58c1.62-2.25,3.89-2.82,5.55-3.1l2.43-0.39c2.31-0.39,3.16-0.51,3.77-1.24c0.28-0.39,0.61-1.07,0.61-2.14
			c0-0.96-0.24-1.58-0.53-1.86c-0.61-0.73-1.5-0.79-1.78-0.79c-0.93,0-1.54,0.39-1.9,0.9c-0.45,0.62-0.69,1.63-0.65,2.7H621.04z
			 M633.89,162.03c-0.93,0.9-1.58,1.07-2.43,1.24c-0.69,0.17-1.74,0.28-2.43,1.35c-0.32,0.51-0.49,1.07-0.49,1.8
			c0,0.85,0.24,1.46,0.53,1.86c0.45,0.62,0.97,0.73,1.42,0.73c0.93,0,1.66-0.34,2.31-1.3c1.01-1.52,1.09-3.44,1.09-4.96V162.03z
			 M639.03,135.55l-4.54,7.44h-5.79l2.67-7.44H639.03z"/>
		<path class="st4" d="M655.39,149.41h0.16c0.65-1.07,1.5-2.03,2.63-2.76c1.42-0.9,2.71-1.13,3.97-1.13c1.82,0,3.93,0.39,5.67,2.65
			c1.82,2.48,2.11,5.64,2.11,9.64V175h-8.51v-15.33c0-2.65-0.45-3.78-0.65-4.23c-0.45-0.96-1.09-1.46-1.94-1.46
			c-0.77,0-1.62,0.34-2.27,1.63c-0.85,1.63-0.81,3.83-0.81,4.17V175h-8.51v-28.63h8.14V149.41z"/>
		<path class="st4" d="M689.95,171.84h-0.2c-2.23,3.32-4.86,3.94-7.01,3.94c-1.74,0-3.81-0.34-5.39-2.54
			c-2.15-2.82-2.15-7.44-2.15-9.75v-17.13h8.51v15.38c0,2.54,0.37,3.72,0.69,4.34c0.53,1.07,1.26,1.24,2.03,1.24
			c0.89,0,1.58-0.45,2.07-1.41c0.77-1.41,0.85-3.27,0.85-4.34v-15.21h8.51V175h-7.9V171.84z"/>
		<path class="st4" d="M724.62,163.72c-0.28,3.78-1.5,6.48-2.75,8.23c-2.67,3.72-6.16,4.06-8.79,4.06c-2.63,0-5.92-0.45-8.43-3.78
			c-1.42-1.8-2.96-5.35-2.96-10.88c0-5.41,1.54-9.41,3.32-11.89c2.59-3.44,5.83-4.28,8.63-4.28c4.33,0,6.85,2.03,8.31,4.06
			c1.26,1.8,2.35,4.62,2.51,8.23h-7.82c0-1.13-0.2-2.76-0.97-3.83c-0.53-0.73-1.17-1.01-1.95-1.01c-0.85,0-1.54,0.39-2.07,1.18
			c-1.09,1.58-1.22,4.34-1.22,6.59c0,1.63,0.04,5.13,1.26,6.99c0.61,0.96,1.3,1.18,2.07,1.18c0.61,0,1.34-0.11,1.94-0.96
			c0.65-0.96,0.97-2.71,0.97-3.89H724.62z"/>
		<path class="st4" d="M747.99,171.9c-2.79,3.89-6.64,4.11-9.32,4.11c-2.92,0-6.12-0.39-8.59-3.55c-1.5-1.86-3.04-5.3-3.04-11.16
			c0-5.69,1.58-9.3,3.08-11.38c2.8-4.06,6.2-4.56,9.03-4.56c2.51,0,6.08,0.51,8.87,4.11c1.66,2.2,3.08,5.75,3.08,11.16
			C751.11,166.2,749.49,169.98,747.99,171.9z M737.1,153.92c-0.49,0.73-1.3,2.42-1.3,6.76c0,2.37,0.37,5.35,1.26,6.76
			c0.61,0.9,1.26,1.13,1.94,1.13c0.77,0,1.42-0.28,2.03-1.13c1.34-1.97,1.34-6.25,1.34-6.76c0-1.97-0.2-5.13-1.3-6.82
			c-0.61-0.84-1.13-1.07-1.9-1.07C738.31,152.79,737.7,153.07,737.1,153.92z"/>
	</g>
</g>
</svg>
