<?xml version="1.0" encoding="utf-8"?>
<!-- Generator: Adobe Illustrator 27.2.0, SVG Export Plug-In . SVG Version: 6.00 Build 0)  -->
<svg version="1.1" id="Capa_1" xmlns="http://www.w3.org/2000/svg" xmlns:xlink="http://www.w3.org/1999/xlink" x="0px" y="0px"
	 viewBox="0 0 722.8 232" style="enable-background:new 0 0 722.8 232;" xml:space="preserve">
<style type="text/css">
	.st0{fill:#293276;stroke:#FFFFFF;stroke-miterlimit:10;}
	.st1{fill:url(#SVGID_1_);stroke:#FDFDFC;stroke-width:5;stroke-miterlimit:10;}
	.st2{fill:none;stroke:#FFFFFF;stroke-width:2;stroke-miterlimit:10;}
	.st3{fill:none;stroke:#FFFFFF;stroke-width:3;stroke-miterlimit:10;}
	.st4{fill:#004B70;}
</style>
<path class="st0" d="M125.5,26.2"/>
<g>
	
		<image style="overflow:visible;enable-background:new    ;" width="272" height="266" xlink:href="16F3818.png"  transform="matrix(1 0 0 1 -26 -17)">
	</image>
</g>
<linearGradient id="SVGID_1_" gradientUnits="userSpaceOnUse" x1="19.33" y1="120.135" x2="203.87" y2="120.135" gradientTransform="matrix(1 0 0 -1 0 234)">
	<stop  offset="0" style="stop-color:#00658F"/>
	<stop  offset="0.1644" style="stop-color:#247B9F"/>
	<stop  offset="0.5317" style="stop-color:#81B3C7"/>
	<stop  offset="1" style="stop-color:#FFFFFF"/>
</linearGradient>
<polygon class="st1" points="203.9,69.5 125.5,26.2 101.1,47.1 19.3,117 143,201.5 139.9,140.7 195.6,135.5 "/>
<line class="st2" x1="137.8" y1="86.3" x2="101.1" y2="47.1"/>
<polyline class="st2" points="148.5,39.6 165.5,63 192.7,63.6 "/>
<polyline class="st2" points="118.2,97.7 88.5,95.8 65.1,80.7 "/>
<polyline class="st2" points="47.4,92.7 74,104.7 118.2,97.7 136.5,88.2 162.4,82.5 203.9,69.5 "/>
<polyline class="st2" points="27.9,109.7 111.9,119.8 152.3,111 "/>
<polyline class="st2" points="162.4,82.5 178.2,112.2 195.9,121.7 "/>
<polyline class="st2" points="111.9,119.8 106.2,138.8 77.8,157.7 "/>
<polyline class="st2" points="167.4,92.7 152.3,111 139.9,140.7 "/>
<polyline class="st2" points="140.3,198.8 120.7,157.1 106.2,138.8 "/>
<line class="st3" x1="106.8" y1="177.9" x2="120.7" y2="157.1"/>
<line class="st2" x1="151.6" y1="138.8" x2="178.2" y2="112.2"/>
<g>
	<g>
		<path class="st4" d="M240,75.8L230.3,39h4.2l4.7,18.1c1.3,5,2.4,9.4,3.2,13.7h0.1c0.9-4.2,2.1-8.9,3.4-13.7l5.1-18.1h4.1
			l-10.7,36.7L240,75.8L240,75.8z"/>
		<path class="st4" d="M275.4,68.6c0,2.7,0,5.1,0.2,7.2h-3.5l-0.2-4.3h-0.1c-1,2.1-3.3,4.9-7.1,4.9c-3.4,0-7.4-2.3-7.4-11.6V49.4
			h3.9V64c0,5,1.2,8.4,4.8,8.4c2.6,0,4.5-2.2,5.2-4.4c0.2-0.7,0.4-1.6,0.4-2.4V49.4h3.9L275.4,68.6L275.4,68.6z"/>
		<path class="st4" d="M281.9,37.1h3.9v38.7h-3.9V37.1z"/>
		<path class="st4" d="M292.4,56.5c0-2.7,0-5-0.2-7.1h3.5l0.2,4.4h0.1c1.1-2.5,3.6-5,7.1-5c3,0,7.6,2.2,7.6,11.2v15.7h-3.9V60.6
			c0-4.2-1.3-7.8-5-7.8c-2.6,0-4.6,2.2-5.2,4.9c-0.2,0.6-0.3,1.4-0.3,2.2v15.8h-3.9L292.4,56.5L292.4,56.5z"/>
		<path class="st4" d="M319.2,63.5c0.1,6.5,3.5,9.2,7.4,9.2c2.8,0,4.5-0.6,6-1.4l0.7,3.4c-1.4,0.8-3.7,1.6-7.2,1.6
			c-6.6,0-10.6-5.3-10.6-13.3s3.8-14.2,10.1-14.2c7,0,8.9,7.6,8.9,12.4c0,1-0.1,1.7-0.1,2.2L319.2,63.5L319.2,63.5z M330.7,60
			c0-3-1-7.8-5.4-7.8c-4,0-5.7,4.5-6,7.8H330.7z"/>
		<path class="st4" d="M339.3,57.6c0-3.1,0-5.8-0.2-8.2h3.4l0.1,5.2h0.2c1-3.5,3.3-5.8,6-5.8c0.4,0,0.8,0,1.1,0.2v4.5
			c-0.4-0.1-0.8-0.2-1.3-0.2c-2.8,0-4.7,2.6-5.2,6.2c-0.1,0.7-0.2,1.4-0.2,2.2v14.1h-3.9V57.6z"/>
		<path class="st4" d="M365.6,75.8l-0.3-3.3h-0.1c-1.2,2.1-3.5,3.9-6.6,3.9c-4.4,0-6.6-3.8-6.6-7.6c0-6.4,4.6-9.9,12.9-9.8v-0.5
			c0-2.2-0.5-6.1-4.9-6.1c-2,0-4.1,0.8-5.6,2l-0.9-3.2c1.8-1.4,4.4-2.3,7.1-2.3c6.6,0,8.2,5.5,8.2,10.8v9.9c0,2.3,0.1,4.5,0.4,6.3
			L365.6,75.8L365.6,75.8z M365,62.3c-4.3-0.1-9.1,0.8-9.1,5.9c0,3.1,1.7,4.6,3.7,4.6c2.8,0,4.6-2.2,5.2-4.4c0.1-0.5,0.2-1,0.2-1.5
			L365,62.3L365,62.3z"/>
		<path class="st4" d="M374.9,75.8c0.1-1.8,0.2-4.5,0.2-6.8V37.1h3.9v16.6h0.1c1.4-2.9,3.9-4.8,7.3-4.8c5.3,0,9.1,5.5,9.1,13.5
			c0,9.4-4.9,14.1-9.6,14.1c-3.1,0-5.6-1.5-7.2-5h-0.1l-0.2,4.4L374.9,75.8L374.9,75.8z M379,65.2c0,0.6,0.1,1.2,0.2,1.7
			c0.8,3.3,3,5.6,5.9,5.6c4.1,0,6.5-4.1,6.5-10.1c0-5.3-2.2-9.8-6.4-9.8c-2.7,0-5.2,2.2-6,5.9c-0.1,0.5-0.2,1.2-0.2,2L379,65.2
			L379,65.2z"/>
		<path class="st4" d="M404.7,42c0,1.6-0.9,2.9-2.5,2.9c-1.4,0-2.4-1.3-2.4-2.9c0-1.7,1-3,2.5-3C403.8,39,404.7,40.3,404.7,42z
			 M400.4,75.8V49.4h3.9v26.4C404.3,75.8,400.4,75.8,400.4,75.8z"/>
		<path class="st4" d="M410.8,37.1h3.9v38.7h-3.9V37.1z"/>
		<path class="st4" d="M425.6,42c0,1.6-0.9,2.9-2.5,2.9c-1.4,0-2.4-1.3-2.4-2.9c0-1.7,1-3,2.5-3C424.7,39,425.6,40.3,425.6,42z
			 M421.3,75.8V49.4h3.9v26.4C425.2,75.8,421.3,75.8,421.3,75.8z"/>
		<path class="st4" d="M450.3,37.1V69c0,2.3,0,5,0.2,6.8h-3.5l-0.2-4.6h-0.1c-1.2,2.9-3.8,5.2-7.3,5.2c-5.2,0-9.2-5.4-9.2-13.4
			c0-8.8,4.4-14.2,9.6-14.2c3.3,0,5.5,1.9,6.5,4h0.1V37.1H450.3z M446.4,60.1c0-0.6,0-1.4-0.2-2c-0.6-3-2.7-5.6-5.6-5.6
			c-4,0-6.5,4.4-6.5,10.2c0,5.3,2.1,9.8,6.4,9.8c2.6,0,5-2.1,5.7-5.7c0.1-0.7,0.2-1.3,0.2-2.1L446.4,60.1L446.4,60.1z"/>
		<path class="st4" d="M468.7,75.8l-0.3-3.3h-0.1c-1.2,2.1-3.5,3.9-6.6,3.9c-4.4,0-6.6-3.8-6.6-7.6c0-6.4,4.6-9.9,12.9-9.8v-0.5
			c0-2.2-0.5-6.1-4.9-6.1c-2,0-4.1,0.8-5.6,2l-0.9-3.2c1.8-1.4,4.4-2.3,7.1-2.3c6.6,0,8.2,5.5,8.2,10.8v9.9c0,2.3,0.1,4.5,0.4,6.3
			L468.7,75.8L468.7,75.8z M468.1,62.3c-4.3-0.1-9.1,0.8-9.1,5.9c0,3.1,1.7,4.6,3.7,4.6c2.8,0,4.6-2.2,5.2-4.4
			c0.1-0.5,0.2-1,0.2-1.5L468.1,62.3L468.1,62.3z"/>
		<path class="st4" d="M496.8,37.1V69c0,2.3,0,5,0.2,6.8h-3.5l-0.2-4.6h-0.1c-1.2,2.9-3.8,5.2-7.3,5.2c-5.2,0-9.2-5.4-9.2-13.4
			c0-8.8,4.4-14.2,9.6-14.2c3.3,0,5.5,1.9,6.5,4h0.1V37.1H496.8z M492.9,60.1c0-0.6,0-1.4-0.2-2c-0.6-3-2.7-5.6-5.7-5.6
			c-4,0-6.5,4.4-6.5,10.2c0,5.3,2.1,9.8,6.4,9.8c2.6,0,5-2.1,5.7-5.7c0.1-0.7,0.2-1.3,0.2-2.1L492.9,60.1L492.9,60.1z"/>
		<path class="st4" d="M514.2,49.4l4.7,15.6c0.5,1.7,1,3.8,1.4,5.4h0.1c0.4-1.6,0.8-3.6,1.4-5.5l4.3-15.5h4.1l-5.9,18.8
			c-2.8,9-4.7,13.7-7.4,16.5c-1.9,2.1-3.8,2.9-4.8,3.1l-1-4c1-0.4,2.3-1.1,3.4-2.3c1.1-1,2.4-2.9,3.3-5.3c0.2-0.5,0.3-0.9,0.3-1.1
			s-0.1-0.7-0.3-1.2l-8-24.3L514.2,49.4L514.2,49.4z"/>
	</g>
	<g>
		<path class="st4" d="M232.7,125V91.5h8.4c2.8,0,4.8,0.1,6,0.4c1.2,0.3,2.3,0.7,3,1.4c1.8,1.6,2.7,3.8,2.7,7c0,3.8-1.2,6.4-4,8.1
			c2.3,1.1,3.5,3.6,3.7,7.6v0.1c0,0.4,0,1,0,1.8c0.1,3.8,0.6,6.1,1.8,7.1h-8.8c-0.4-1.4-0.6-2.9-0.6-4.6c0-0.5,0-1.2,0-1.9
			c0-0.8,0-1.2,0-1.5c0-2-0.2-3.4-0.8-4.2s-1.4-1.1-2.8-1.1h-1.5V125C240.1,125,232.7,125,232.7,125z M240.1,105.4
			c0.2,0,0.8,0,0.9,0c3.1,0,4.3-1.2,4.3-4.3c0-2.9-1.2-3.9-4.3-3.9c-0.2,0-0.7,0-0.9,0V105.4z"/>
		<path class="st4" d="M274.4,116.2v0.6c0,5.9-3,8.8-8.8,8.8c-2.9,0-5.5-0.9-6.8-2.4c-0.8-0.9-1.3-2.1-1.6-3.5
			c-0.3-1.4-0.5-3.8-0.5-7c0-3.5,0.2-6,0.5-7.4c0.3-1.4,0.9-2.6,1.7-3.5c1.5-1.7,3.9-2.6,7-2.6c3.2,0,5.5,1,6.9,2.8
			c0.6,0.8,1,1.7,1.3,2.8c0.3,1.1,0.4,2.9,0.4,5.6v3h-10.9c0,0.1,0,0.2,0,0.3c-0.1,1.1-0.1,1.8-0.1,2.2c0,1.8,0.2,3,0.5,3.7
			c0.4,0.7,1,1,1.9,1c1.5,0,2.3-1,2.3-3.2c0-0.2,0-0.5-0.1-1c0-0.1,0-0.2,0-0.2L274.4,116.2L274.4,116.2z M268.2,109v-0.1
			c0.1-0.6,0.1-1.1,0.1-1.3c0-2.4-0.8-3.6-2.4-3.6c-1.6,0-2.3,1.1-2.3,3.7c0,0.7,0,1.1,0,1.4C263.7,109,268.2,109,268.2,109z"/>
		<path class="st4" d="M278.4,125V91.5h6.7v11c1.1-2.1,2.9-3.2,5.4-3.2c3.7,0,5.4,2.5,5.4,8.1V125h-6.7v-15.5c0-2-0.1-3.2-0.4-3.8
			s-0.7-0.7-1.3-0.7c-1.5,0-2.4,1.6-2.4,4.3V125C285.1,125,278.4,125,278.4,125z"/>
		<path class="st4" d="M311.7,125l-0.4-2.3c-1.7,1.8-3.7,2.8-6,2.8c-1.9,0-3.4-0.6-4.5-1.9c-1.1-1.3-1.7-3-1.7-5.2
			c0-1.9,0.5-3.4,1.4-4.7c0.9-1.2,2.5-2.3,4.6-3.2c0.5-0.2,1.2-0.5,2.1-0.8c2.5-0.9,3.8-2,3.8-3.2c0-1.5-0.8-2.3-2.1-2.3
			c-1.6,0-2.4,1-2.4,3.2v0.2h-6.7c0-5.7,3-8.4,9.1-8.4c2.8,0,5,0.5,6.5,1.6c0.9,0.7,1.6,1.5,2,2.4c0.4,0.9,0.6,2.7,0.6,5.1v0.8v8.9
			c0,2,0.1,3.5,0.2,4.5c0.1,1,0.3,1.9,0.6,2.5L311.7,125L311.7,125z M310.8,112.9c-3.5,1-5,2.4-5,4.7c0,1.6,0.9,2.6,2.2,2.6
			c2,0,2.8-1.3,2.8-4.5V112.9z"/>
		<path class="st4" d="M322.3,91.5h6.7v10.6c1.2-2,2.7-2.9,4.7-2.9c2.4,0,4,0.9,4.9,2.7c0.9,1.8,1.4,5.5,1.4,11.2
			c0,2.6-0.1,4.6-0.2,6s-0.4,2.4-0.6,3.1c-1,2.3-2.8,3.4-5.3,3.4c-2.3,0-4.1-1.2-5.4-3.5v2.8h-6.2L322.3,91.5L322.3,91.5z
			 M329.4,106.4c-0.3,0.8-0.5,2.3-0.5,4.4c0,4.1,0.2,6.7,0.5,7.7c0.3,1,0.9,1.4,1.8,1.4c0.8,0,1.3-0.4,1.6-1.1s0.4-2.4,0.4-5.1v-0.7
			c0-3.5-0.1-5.8-0.5-6.6s-0.9-1.3-1.7-1.3C330.3,105.2,329.7,105.6,329.4,106.4z"/>
		<path class="st4" d="M344.1,97.4v-6.1h6.7v6.1H344.1z M344.1,125V99.9h6.7V125H344.1z"/>
		<path class="st4" d="M362,125h-6.7V91.5h6.7V125z"/>
		<path class="st4" d="M366.6,97.4v-6.1h6.7v6.1H366.6z M366.6,125V99.9h6.7V125H366.6z"/>
		<path class="st4" d="M388.7,124.9c-1.6,0.3-2.9,0.5-3.7,0.5c-2.7,0-4.6-0.9-5.5-2.6c-0.3-0.6-0.5-1.3-0.6-2.2
			c-0.1-0.9-0.2-2.2-0.2-4v-3.1v-8.4h-2.6v-5.2h2.6v-6.9h6.8v6.9h3.2v5.2h-3.2v10.2c0,2.2,0.1,3.5,0.5,4s0.9,0.8,1.8,0.8
			c0.1,0,0.4,0,0.8-0.1c0.1,0,0.2,0,0.2,0L388.7,124.9L388.7,124.9z"/>
		<path class="st4" d="M403.6,125l-0.4-2.3c-1.7,1.8-3.7,2.8-6,2.8c-1.9,0-3.4-0.6-4.5-1.9c-1.1-1.3-1.7-3-1.7-5.2
			c0-1.9,0.5-3.4,1.4-4.7s2.5-2.3,4.6-3.2c0.5-0.2,1.2-0.5,2.1-0.8c2.5-0.9,3.8-2,3.8-3.2c0-1.5-0.8-2.3-2.1-2.3
			c-1.6,0-2.4,1-2.4,3.2v0.2h-6.7c0-5.7,3-8.4,9.1-8.4c2.8,0,5,0.5,6.5,1.6c0.9,0.7,1.6,1.5,2,2.4c0.4,0.9,0.6,2.7,0.6,5.1v0.8v8.9
			c0,2,0.1,3.5,0.2,4.5c0.1,1,0.3,1.9,0.6,2.5L403.6,125L403.6,125z M402.7,112.9c-3.5,1-5,2.4-5,4.7c0,1.6,0.9,2.6,2.2,2.6
			c2,0,2.8-1.3,2.8-4.5V112.9z"/>
		<path class="st4" d="M431.1,115.1c0,0.3,0,0.8,0,1c0,6.4-2.8,9.6-8.6,9.6c-3.3,0-5.6-1-6.9-2.9c-1.4-1.9-2-5.4-2-10.3
			s0.7-8.3,2-10.3c1.4-1.9,3.7-2.9,6.9-2.9c5.9,0,8.6,3,8.6,9.7v0.4h-6.5v-0.7c0-3-0.6-4.2-2-4.2c-0.9,0-1.4,0.4-1.7,1.3
			c-0.3,0.8-0.5,3.1-0.5,6.7c0,3.5,0.1,5.7,0.5,6.6c0.3,1,0.9,1.4,1.7,1.4c1.4,0,2-1.3,2-4.2c0-0.2,0-0.9,0-1.2L431.1,115.1
			L431.1,115.1z"/>
		<path class="st4" d="M435.2,97.4v-6.1h6.7v6.1H435.2z M435.2,125V99.9h6.7V125H435.2z"/>
		<path class="st4" d="M447.9,102.1c1.4-2,3.7-2.9,6.9-2.9c3.3,0,5.6,1,6.9,2.9c1.4,1.9,2,5.4,2,10.3c0,4.9-0.7,8.3-2,10.3
			c-1.4,2-3.7,2.9-6.9,2.9c-3.3,0-5.6-1-6.9-2.9c-1.4-1.9-2-5.4-2-10.3C445.8,107.5,446.5,104.1,447.9,102.1z M451.5,97.2l4.1-6.2
			h6.1l-7.3,6.2H451.5z M453.1,119c0.3,0.9,0.9,1.3,1.7,1.3s1.4-0.4,1.7-1.3c0.3-0.8,0.4-3.1,0.4-6.7s-0.1-5.8-0.4-6.7
			c-0.3-0.8-0.9-1.3-1.7-1.3s-1.4,0.5-1.7,1.3c-0.3,0.9-0.5,3.1-0.5,6.6S452.8,118.1,453.1,119z"/>
		<path class="st4" d="M467.7,125V99.9h6.3v3c1.5-2.4,3.3-3.5,5.8-3.5c3.7,0,5.4,2.5,5.4,8.1V125h-6.7v-15.5c0-2-0.1-3.2-0.4-3.8
			s-0.7-0.7-1.3-0.7c-1.5,0-2.4,1.6-2.4,4.3V125L467.7,125L467.7,125z"/>
		<path class="st4" d="M518.4,91.5V125h-6.2v-2.8c-1.3,2.3-3.2,3.5-5.4,3.5c-1.9,0-3.5-0.7-4.5-2c-0.6-0.8-1-1.8-1.2-3.2
			c-0.2-1.3-0.4-3.8-0.4-7.4c0-5.7,0.5-9.4,1.4-11.2c0.9-1.8,2.6-2.7,4.9-2.7c2,0,3.5,0.9,4.7,2.9V91.5H518.4z M507.9,106.6
			c-0.3,0.9-0.5,2.9-0.5,6.1c0,3.2,0.2,5.3,0.4,6.1s0.8,1.2,1.6,1.2c0.9,0,1.5-0.5,1.8-1.4c0.3-1,0.5-3.5,0.5-7.7
			c0-2.1-0.2-3.6-0.5-4.4c-0.3-0.8-0.9-1.2-1.7-1.2C508.8,105.2,508.2,105.7,507.9,106.6z"/>
		<path class="st4" d="M540,116.2v0.6c0,5.9-3,8.8-8.8,8.8c-2.9,0-5.5-0.9-6.8-2.4c-0.8-0.9-1.3-2.1-1.6-3.5c-0.3-1.4-0.5-3.8-0.5-7
			c0-3.5,0.2-6,0.5-7.4c0.3-1.4,0.9-2.6,1.7-3.5c1.5-1.7,3.9-2.6,7-2.6c3.2,0,5.5,1,6.9,2.8c0.6,0.8,1,1.7,1.3,2.8
			c0.3,1.1,0.4,2.9,0.4,5.6v3h-10.9c0,0.1,0,0.2,0,0.3c-0.1,1.1-0.1,1.8-0.1,2.2c0,1.8,0.2,3,0.5,3.7c0.3,0.7,1,1,1.8,1
			c1.5,0,2.3-1,2.3-3.2c0-0.2,0-0.5-0.1-1c0-0.1,0-0.2,0-0.2L540,116.2L540,116.2z M533.8,109v-0.1c0.1-0.6,0.1-1.1,0.1-1.3
			c0-2.4-0.8-3.6-2.3-3.6c-1.6,0-2.3,1.1-2.3,3.7c0,0.7,0,1.1,0,1.4C529.3,109,533.8,109,533.8,109z"/>
		<path class="st4" d="M562.3,125h-6.7V91.5h6.7V125z"/>
		<path class="st4" d="M578.5,125l-0.4-2.3c-1.7,1.8-3.7,2.8-6,2.8c-1.9,0-3.4-0.6-4.5-1.9c-1.1-1.3-1.7-3-1.7-5.2
			c0-1.9,0.5-3.4,1.4-4.7s2.5-2.3,4.6-3.2c0.5-0.2,1.2-0.5,2.1-0.8c2.5-0.9,3.8-2,3.8-3.2c0-1.5-0.8-2.3-2.1-2.3
			c-1.6,0-2.4,1-2.4,3.2v0.2h-6.7c0-5.7,3-8.4,9.2-8.4c2.8,0,5,0.5,6.5,1.6c0.9,0.7,1.6,1.5,2,2.4c0.4,0.9,0.6,2.7,0.6,5.1v0.8v8.9
			c0,2,0.1,3.5,0.2,4.5c0.1,1,0.3,1.9,0.7,2.5L578.5,125L578.5,125z M577.6,112.9c-3.5,1-5,2.4-5,4.7c0,1.6,0.8,2.6,2.2,2.6
			c2,0,2.8-1.3,2.8-4.5V112.9z"/>
	</g>
	<g>
		<path class="st4" d="M260,164.3c-0.3,4.6-1.7,8.7-3.5,11.1c-3.1,4.3-7.9,4.6-10.5,4.6c-3,0-7-0.4-10.2-4.5
			c-2-2.6-4.1-7.7-4.1-15.9c0-7.5,1.7-12.6,4.2-15.9c3.2-4.3,7.2-5.2,10.6-5.2c4.7,0,7.9,1.9,9.9,4.8c0.3,0.4,2.8,4.1,3.3,10.5h-8.5
			c-0.2-1.5-0.7-2.7-1.3-3.6c-1-1.1-2.3-1.2-3-1.2c-1.3,0-2.8,0.3-3.9,2c-1.6,2.2-1.8,5.9-1.8,8.3c0,2.6,0.2,5.7,1.6,8
			c1.3,2.1,2.7,2.2,3.9,2.2s2.3-0.2,3.4-1.5c1-1.3,1.3-2.8,1.4-3.6L260,164.3L260,164.3z"/>
		<path class="st4" d="M278.2,175.7H278c-2.2,3.3-4.9,3.9-7,3.9c-1.7,0-3.8-0.3-5.4-2.5c-2.1-2.8-2.1-7.4-2.1-9.8v-17.1h8.5v15.4
			c0,2.5,0.4,3.7,0.7,4.3c0.5,1.1,1.3,1.2,2,1.2c0.9,0,1.6-0.4,2.1-1.4c0.8-1.4,0.9-3.3,0.9-4.3v-15.2h8.5v28.6h-7.9L278.2,175.7
			L278.2,175.7z"/>
		<path class="st4" d="M313.5,170.6c-0.6,2.4-1.7,5.2-4.1,7.2c-2.6,2.1-5.4,2.1-7.5,2.1c-3.2,0-6.6-0.4-9.1-3.9
			c-1.6-2.2-2.8-5.8-2.8-10.5c0-4.6,1.1-8.7,3.1-11.6c2.5-3.7,5.7-4.6,8.9-4.6c4.7,0,7.4,2,9,4.2c2.8,4,2.8,9.4,2.8,12.8v0.7h-15.1
			c0,1.5,0.2,3.3,0.8,4.3c0.5,1,1.3,1.6,2.6,1.6c0.6,0,1.4-0.1,2-0.6c0.6-0.5,0.9-1.1,1-1.8H313.5z M305,161.3c0-1.3-0.3-3-0.9-3.8
			c-0.6-1-1.4-1.2-2.1-1.2c-0.9,0-1.7,0.3-2.3,1.2c-0.6,1-1,2.6-1,3.8L305,161.3L305,161.3z"/>
		<path class="st4" d="M325.8,153.3h0.2c0.6-1.1,1.5-2,2.6-2.8c1.4-0.9,2.7-1.1,4-1.1c1.8,0,3.9,0.4,5.7,2.6
			c1.8,2.5,2.1,5.6,2.1,9.6v17.2h-8.5v-15.3c0-2.6-0.5-3.8-0.6-4.2c-0.5-1-1.1-1.5-1.9-1.5c-0.8,0-1.6,0.3-2.3,1.6
			c-0.9,1.6-0.8,3.8-0.8,4.2v15.2h-8.5v-28.6h8.1L325.8,153.3L325.8,153.3z"/>
		<path class="st4" d="M367.1,167.6c-0.3,3.8-1.5,6.5-2.8,8.2c-2.7,3.7-6.2,4.1-8.8,4.1s-5.9-0.4-8.4-3.8c-1.4-1.8-3-5.4-3-10.9
			c0-5.4,1.5-9.4,3.3-11.9c2.6-3.4,5.8-4.3,8.6-4.3c4.3,0,6.9,2,8.3,4.1c1.3,1.8,2.4,4.6,2.5,8.2h-7.8c0-1.1-0.2-2.8-1-3.8
			c-0.5-0.7-1.2-1-1.9-1c-0.9,0-1.5,0.4-2.1,1.2c-1.1,1.6-1.2,4.3-1.2,6.6c0,1.6,0,5.1,1.3,7c0.6,1,1.3,1.2,2.1,1.2
			c0.6,0,1.3-0.1,1.9-1c0.6-1,1-2.7,1-3.9L367.1,167.6L367.1,167.6z"/>
		<path class="st4" d="M370.4,160c0.2-2.8,1-5.1,2.1-6.6c2.3-3.3,6-3.8,8.7-3.8c2,0,6.1,0.2,8.5,3.3c1.9,2.5,2.1,5.9,2.1,8.2v12.9
			c0,2,0.1,2.8,0.3,3.3c0.2,0.6,0.6,1,1.1,1.3v0.4H384l-0.5-3.1h-0.1c-0.6,1.1-1.5,2.1-2.5,2.8c-1.5,1.1-3.2,1.4-4.6,1.4
			c-1.6,0-3.7-0.2-5.2-2.2c-0.8-1.1-1.7-3-1.7-6.2c0-2.2,0.4-4,1.5-5.6c1.6-2.2,3.9-2.8,5.5-3.1l2.4-0.4c2.3-0.4,3.2-0.5,3.8-1.2
			c0.3-0.4,0.6-1.1,0.6-2.1c0-1-0.2-1.6-0.5-1.9c-0.6-0.7-1.5-0.8-1.8-0.8c-0.9,0-1.5,0.4-1.9,0.9c-0.5,0.6-0.7,1.6-0.6,2.7
			L370.4,160L370.4,160z M383.2,165.9c-0.9,0.9-1.6,1.1-2.4,1.2c-0.7,0.2-1.7,0.3-2.4,1.4c-0.3,0.5-0.5,1.1-0.5,1.8
			c0,0.9,0.2,1.5,0.5,1.9c0.5,0.6,1,0.7,1.4,0.7c0.9,0,1.7-0.3,2.3-1.3c1-1.5,1.1-3.4,1.1-5L383.2,165.9L383.2,165.9z"/>
		<path class="st4" d="M420.8,178.9v-2.8h-0.2c-2,3.4-4.8,3.8-6.5,3.8c-2,0-4.6-0.5-6.7-3.6c-1.5-2.2-2.8-5.8-2.8-11
			c0-5,1.2-9.5,3-12.2c1.9-2.9,4.2-3.8,6.9-3.8c3.5,0,5.1,2,5.9,3.4v-13.2h8.5v39.4L420.8,178.9L420.8,178.9z M419.5,158.7
			c-0.5-0.7-1.3-1.5-2.5-1.5c-0.8,0-1.6,0.3-2.3,1.3c-1.2,1.6-1.3,4.7-1.3,6.3c0,3.4,0.7,5.2,1.5,6.3c0.5,0.7,1.2,1.3,2.3,1.3
			c1,0,1.8-0.4,2.4-1.4c1.1-1.8,1.2-4.3,1.2-6.5C420.8,162.5,420.6,160.3,419.5,158.7z"/>
		<path class="st4" d="M456.3,170.6c-0.6,2.4-1.7,5.2-4.1,7.2c-2.6,2.1-5.4,2.1-7.5,2.1c-3.2,0-6.6-0.4-9.1-3.9
			c-1.6-2.2-2.8-5.8-2.8-10.5c0-4.6,1.1-8.7,3.1-11.6c2.5-3.7,5.7-4.6,8.9-4.6c4.7,0,7.4,2,9,4.2c2.8,4,2.8,9.4,2.8,12.8v0.7h-15.1
			c0,1.5,0.2,3.3,0.8,4.3c0.5,1,1.3,1.6,2.6,1.6c0.6,0,1.4-0.1,2-0.6c0.6-0.5,0.9-1.1,1-1.8H456.3z M447.9,161.3
			c0-1.3-0.3-3-0.9-3.8c-0.6-1-1.4-1.2-2.1-1.2c-0.9,0-1.7,0.3-2.3,1.2c-0.6,1-1,2.6-1,3.8L447.9,161.3L447.9,161.3z"/>
		<path class="st4" d="M469,139.4v39.4h-8.5v-39.4H469z"/>
		<path class="st4" d="M484.5,139.4h16c1.8,0,4.7,0.3,7,3.2c2,2.5,2.4,5.9,2.4,9c0,2.5-0.4,5-1.9,7.1c-0.7,0.9-1.5,1.6-2.5,2v0.3
			c1.3,0.4,2.2,1.5,2.9,2.6c1.1,2,1.1,3.9,1.1,6.1l0.1,3.2c0,2.1,0.1,3.6,1,5.8h-9c-0.9-1.9-0.9-3.1-1-4.9l-0.1-2.4
			c0-1.6,0-3.9-1-5.2c-0.8-1.1-2.2-1.2-3.1-1.2h-3.1v13.6h-8.8L484.5,139.4L484.5,139.4z M493.3,156.8h5c0.6,0,1.6-0.1,2.3-1
			c0.5-0.5,0.9-1.5,0.9-3c0-0.8-0.1-1.9-0.8-2.8c-0.8-1-1.9-1-2.5-1h-4.9L493.3,156.8L493.3,156.8z"/>
		<path class="st4" d="M523.4,150.2v28.6h-8.5v-28.6H523.4z M525.7,139.4l-4.5,7.4h-5.8l2.7-7.4H525.7z"/>
		<path class="st4" d="M548.2,175.8c-2.8,3.9-6.6,4.1-9.3,4.1c-2.9,0-6.1-0.4-8.6-3.6c-1.5-1.9-3-5.3-3-11.2c0-5.7,1.6-9.3,3.1-11.4
			c2.8-4.1,6.2-4.6,9-4.6c2.5,0,6.1,0.5,8.9,4.1c1.7,2.2,3.1,5.8,3.1,11.2C551.3,170.1,549.7,173.8,548.2,175.8z M537.2,157.8
			c-0.5,0.7-1.3,2.4-1.3,6.8c0,2.4,0.4,5.4,1.3,6.8c0.6,0.9,1.3,1.1,1.9,1.1c0.8,0,1.4-0.3,2-1.1c1.3-2,1.3-6.2,1.3-6.8
			c0-2-0.2-5.1-1.3-6.8c-0.6-0.8-1.1-1.1-1.9-1.1C538.5,156.7,537.9,156.9,537.2,157.8z"/>
		<path class="st4" d="M579.8,139.4c2.6,0,5.9,0.6,8.4,3.7c2.4,3.2,2.7,7.5,2.7,10.2c0,2.6-0.2,7.3-2.7,10.6
			c-2.7,3.6-6.2,3.6-8.4,3.6h-5.6v11.4h-8.8v-39.4L579.8,139.4L579.8,139.4z M574.2,158h4.2c0.8,0,1.9,0,2.8-1.1
			c0.5-0.6,0.8-1.6,0.8-3.2c0-1.4-0.4-2.2-0.7-2.6c-0.8-1-2.1-1-2.9-1h-4.2V158z"/>
		<path class="st4" d="M592.7,160c0.2-2.8,1-5.1,2.1-6.6c2.3-3.3,6-3.8,8.7-3.8c2,0,6.1,0.2,8.5,3.3c1.9,2.5,2.1,5.9,2.1,8.2v12.9
			c0,2,0.1,2.8,0.3,3.3c0.2,0.6,0.6,1,1.1,1.3v0.4h-9.2l-0.5-3.1h-0.1c-0.7,1.1-1.5,2.1-2.5,2.8c-1.5,1.1-3.2,1.4-4.6,1.4
			c-1.6,0-3.7-0.2-5.2-2.2c-0.8-1.1-1.7-3-1.7-6.2c0-2.2,0.4-4,1.5-5.6c1.6-2.2,3.9-2.8,5.5-3.1l2.4-0.4c2.3-0.4,3.2-0.5,3.8-1.2
			c0.3-0.4,0.6-1.1,0.6-2.1c0-1-0.2-1.6-0.5-1.9c-0.6-0.7-1.5-0.8-1.8-0.8c-0.9,0-1.5,0.4-1.9,0.9c-0.5,0.6-0.7,1.6-0.7,2.7
			L592.7,160L592.7,160z M605.5,165.9c-0.9,0.9-1.6,1.1-2.4,1.2c-0.7,0.2-1.7,0.3-2.4,1.4c-0.3,0.5-0.5,1.1-0.5,1.8
			c0,0.9,0.2,1.5,0.5,1.9c0.5,0.6,1,0.7,1.4,0.7c0.9,0,1.7-0.3,2.3-1.3c1-1.5,1.1-3.4,1.1-5L605.5,165.9L605.5,165.9z M610.7,139.4
			l-4.5,7.4h-5.8l2.7-7.4H610.7z"/>
		<path class="st4" d="M627,153.3h0.2c0.7-1.1,1.5-2,2.6-2.8c1.4-0.9,2.7-1.1,4-1.1c1.8,0,3.9,0.4,5.7,2.6c1.8,2.5,2.1,5.6,2.1,9.6
			v17.2h-8.5v-15.3c0-2.6-0.5-3.8-0.7-4.2c-0.5-1-1.1-1.5-1.9-1.5c-0.8,0-1.6,0.3-2.3,1.6c-0.8,1.6-0.8,3.8-0.8,4.2v15.2h-8.5v-28.6
			h8.1L627,153.3L627,153.3z"/>
		<path class="st4" d="M661.6,175.7h-0.2c-2.2,3.3-4.9,3.9-7,3.9c-1.7,0-3.8-0.3-5.4-2.5c-2.2-2.8-2.2-7.4-2.2-9.8v-17.1h8.5v15.4
			c0,2.5,0.4,3.7,0.7,4.3c0.5,1.1,1.3,1.2,2,1.2c0.9,0,1.6-0.4,2.1-1.4c0.8-1.4,0.8-3.3,0.8-4.3v-15.2h8.5v28.6h-7.9L661.6,175.7
			L661.6,175.7z"/>
		<path class="st4" d="M696.3,167.6c-0.3,3.8-1.5,6.5-2.8,8.2c-2.7,3.7-6.2,4.1-8.8,4.1s-5.9-0.4-8.4-3.8c-1.4-1.8-3-5.4-3-10.9
			c0-5.4,1.5-9.4,3.3-11.9c2.6-3.4,5.8-4.3,8.6-4.3c4.3,0,6.8,2,8.3,4.1c1.3,1.8,2.3,4.6,2.5,8.2h-7.8c0-1.1-0.2-2.8-1-3.8
			c-0.5-0.7-1.2-1-2-1c-0.8,0-1.5,0.4-2.1,1.2c-1.1,1.6-1.2,4.3-1.2,6.6c0,1.6,0,5.1,1.3,7c0.6,1,1.3,1.2,2.1,1.2
			c0.6,0,1.3-0.1,1.9-1c0.7-1,1-2.7,1-3.9L696.3,167.6L696.3,167.6z"/>
		<path class="st4" d="M719.7,175.8c-2.8,3.9-6.6,4.1-9.3,4.1c-2.9,0-6.1-0.4-8.6-3.6c-1.5-1.9-3-5.3-3-11.2c0-5.7,1.6-9.3,3.1-11.4
			c2.8-4.1,6.2-4.6,9-4.6c2.5,0,6.1,0.5,8.9,4.1c1.7,2.2,3.1,5.8,3.1,11.2C722.8,170.1,721.2,173.8,719.7,175.8z M708.8,157.8
			c-0.5,0.7-1.3,2.4-1.3,6.8c0,2.4,0.4,5.4,1.3,6.8c0.6,0.9,1.3,1.1,1.9,1.1c0.8,0,1.4-0.3,2-1.1c1.3-2,1.3-6.2,1.3-6.8
			c0-2-0.2-5.1-1.3-6.8c-0.6-0.8-1.1-1.1-1.9-1.1C710,156.7,709.4,156.9,708.8,157.8z"/>
	</g>
</g>
</svg>
