<?xml version="1.0" encoding="utf-8"?>
<!-- Generator: Adobe Illustrator 27.2.0, SVG Export Plug-In . SVG Version: 6.00 Build 0)  -->
<svg version="1.1" id="Capa_1" xmlns="http://www.w3.org/2000/svg" xmlns:xlink="http://www.w3.org/1999/xlink" x="0px" y="0px"
	 viewBox="0 0 800 800" style="enable-background:new 0 0 800 800;" xml:space="preserve">
<style type="text/css">
	.st0{fill:#E3F7FF;}
	.st1{fill:url(#SVGID_1_);}
	.st2{fill:url(#SVGID_00000130606489749175458470000017328261119400596133_);}
	.st3{fill:url(#SVGID_00000098187937192739365220000016147829784433943947_);}
	.st4{fill:url(#SVGID_00000137127903932500607800000005389529243803781036_);}
	.st5{fill:url(#SVGID_00000078743847847205306270000007733888398761179550_);}
</style>
<g>
	<path class="st0" d="M732.1,488.6c-37.3-27.4-87.8-49.1-146.8-63.2c3.9-35.1-2.3-70.7-18.1-102.2L443,66.9c-2.9-6-9-9.9-15.7-9.9
		c-6.7-0.1-12.8,3.8-15.8,9.8L280.7,329.9c-0.2,0.4-0.4,0.8-0.5,1.2c-12,29.7-16,62.4-11.6,94.2c-59.2,14.1-109.9,35.8-147.4,63.3
		c-44.5,32.6-67.9,71.6-67.9,112.7c0,54.1,40.5,104,114,140.4c69.6,34.5,161.7,53.5,259.4,53.5s189.8-19,259.4-53.5
		c73.5-36.4,114-86.3,114-140.4C800,560.2,776.5,521.2,732.1,488.6z"/>
	<g>
		<linearGradient id="SVGID_1_" gradientUnits="userSpaceOnUse" x1="200.6035" y1="150.1629" x2="507.5461" y2="712.1852">
			<stop  offset="0" style="stop-color:#004C71"/>
			<stop  offset="1" style="stop-color:#99DDFF"/>
		</linearGradient>
		<path class="st1" d="M315.1,299.9c-9-3.6-19.2,0.7-22.9,9.7c-14,34.5-7.6,74.4,16.2,101.7c3.5,4,8.4,6,13.3,6
			c4.1,0,8.2-1.4,11.5-4.3c7.3-6.4,8.1-17.5,1.7-24.8c-15-17.2-19-43.5-10.1-65.5C328.5,313.8,324.1,303.6,315.1,299.9z"/>
		
			<linearGradient id="SVGID_00000127723939512587452420000014149506718440639149_" gradientUnits="userSpaceOnUse" x1="213.6286" y1="143.0493" x2="520.5712" y2="705.0718">
			<stop  offset="0" style="stop-color:#004C71"/>
			<stop  offset="1" style="stop-color:#99DDFF"/>
		</linearGradient>
		<path style="fill:url(#SVGID_00000127723939512587452420000014149506718440639149_);" d="M365.6,407.1
			c-9.5-2.1-18.9,3.9-20.9,13.4c-2.1,9.5,3.9,18.9,13.4,20.9c4.9,1.1,9.9,1.7,14.9,1.8c0.2,0,0.4,0,0.5,0c9.5,0,17.3-7.5,17.6-17.1
			c0.3-9.7-7.3-17.8-17-18.1C371.2,408.1,368.3,407.8,365.6,407.1z"/>
		
			<linearGradient id="SVGID_00000145747398221579829260000006838773639575226003_" gradientUnits="userSpaceOnUse" x1="211.9433" y1="143.9698" x2="518.8859" y2="705.9922">
			<stop  offset="0" style="stop-color:#004C71"/>
			<stop  offset="1" style="stop-color:#99DDFF"/>
		</linearGradient>
		<path style="fill:url(#SVGID_00000145747398221579829260000006838773639575226003_);" d="M720.4,476.4c-5.9-7.7-16.9-9.2-24.6-3.4
			c-7.7,5.9-9.2,16.9-3.4,24.6c12.7,16.7,19.1,34,19.1,51.5c0,19.5-8,38.7-23.8,57.2c-16.4,19.2-40.2,36.6-70.7,51.7
			c-64.8,32.1-151.4,49.8-243.8,49.8c-55.4,0-110.4-6.6-159.1-19.1c-9.4-2.4-19,3.3-21.4,12.7c-2.4,9.4,3.3,19,12.7,21.4
			c52.3,13.4,108.7,20.2,167.8,20.2c97.7,0,189.8-19,259.4-53.5c73.5-36.4,114-86.3,114-140.4C746.7,523.8,737.9,499.3,720.4,476.4z
			"/>
		
			<linearGradient id="SVGID_00000006691001572712780640000016250103842793490353_" gradientUnits="userSpaceOnUse" x1="343.6362" y1="72.0471" x2="650.5787" y2="634.0695">
			<stop  offset="0" style="stop-color:#004C71"/>
			<stop  offset="1" style="stop-color:#99DDFF"/>
		</linearGradient>
		<path style="fill:url(#SVGID_00000006691001572712780640000016250103842793490353_);" d="M494.7,383.1c0,0.2-0.1,0.4-0.1,0.5
			c-5.9,28.2-19.8,54.3-40.6,73.4c-2.5,1.3-4.7,3.1-6.3,5.5c-3.1,2.5-6.2,4.8-9.5,6.9c-8.1,5.3-10.4,16.2-5.1,24.3
			c3.4,5.2,9,8,14.7,8c3.3,0,6.6-0.9,9.6-2.9c3.1-2,6.2-4.2,9.1-6.4c14.4,4.8,27.4,10.7,37.8,17.3c2.9,1.9,6.2,2.7,9.4,2.7
			c5.8,0,11.5-2.9,14.9-8.2c5.2-8.2,2.8-19.1-5.4-24.3c-8.6-5.5-18.2-10.4-28.8-14.8c13.5-16.7,23.9-36.2,30.5-57.7
			c17,4.1,33.3,8.9,48.6,14.3c32.2,11.3,59.8,25.2,82.1,41.1c2.4,1.7,4.8,3.5,7,5.2c3.2,2.5,7,3.7,10.8,3.7c5.2,0,10.4-2.3,13.9-6.8
			c5.9-7.7,4.6-18.7-3.1-24.7c-2.6-2.1-5.4-4.1-8.2-6.1c-25-17.8-55.5-33.2-90.8-45.6c-16.8-5.9-34.6-11.1-53.1-15.6
			c3.9-35.1-2.3-70.7-18.1-102.2L502,246.5c-4.2-8.7-14.7-12.4-23.5-8.2c-8.7,4.2-12.4,14.7-8.2,23.5l11.9,24.6
			c0,0.1,0.1,0.2,0.1,0.2c15.2,30.1,18.7,64.3,12.3,95.8C494.8,382.7,494.7,382.9,494.7,383.1z"/>
		
			<linearGradient id="SVGID_00000065062443801434876010000002936364643531925144_" gradientUnits="userSpaceOnUse" x1="134.8403" y1="186.0788" x2="441.7828" y2="748.1012">
			<stop  offset="0" style="stop-color:#004C71"/>
			<stop  offset="1" style="stop-color:#99DDFF"/>
		</linearGradient>
		<path style="fill:url(#SVGID_00000065062443801434876010000002936364643531925144_);" d="M221.4,481.6
			c-28.4,18.8-43.5,42.1-43.5,67.6c0,30.6,22,58.3,61.9,78.1c36,17.8,83.4,27.6,133.6,27.6c41,0,80.1-6.5,113.1-18.8
			c52.4-19.5,82.4-51.2,82.4-86.9c0-9.7-7.9-17.6-17.6-17.6s-17.6,7.9-17.6,17.6c0,19.6-22.8,40.3-59.5,54
			c-29.1,10.8-63.9,16.6-100.8,16.6c-94.5,0-160.3-37.2-160.3-70.6c0-17.4,17.3-31.4,27.7-38.2c12-7.9,27.2-14.7,44.5-20
			c1,0.7,2,1.4,3,2l7.7,5.2c24.5,16.4,52.6,25,81.3,25c1,0,2.1,0,3.1,0c9.7-0.2,17.4-8.2,17.2-17.9c-0.2-9.7-8.3-17.5-17.9-17.2
			c-22.6,0.5-44.7-6.1-64.1-19l-7.7-5.2c-52.7-35.1-73.4-108.5-48.4-171L373.7,62.3l48.1,99.3c4.2,8.7,14.7,12.4,23.5,8.2
			c8.7-4.2,12.4-14.7,8.2-23.5L389.7,14.7c-2.9-6-9-9.9-15.7-9.9c0,0-0.1,0-0.1,0c-6.7,0-12.8,3.8-15.7,9.8L227.5,277.7
			c-0.2,0.4-0.4,0.8-0.5,1.2c-12,29.7-16,62.4-11.6,94.2c-59.2,14.1-109.9,35.8-147.4,63.3C23.5,469,0,508,0,549.1
			c0,42.6,25,82.7,72.4,116c3.1,2.2,6.6,3.2,10.1,3.2c5.5,0,11-2.6,14.4-7.5c5.6-7.9,3.7-18.9-4.3-24.5
			c-26.2-18.4-57.5-48.5-57.5-87.2c0-58.8,75-114.9,188.3-141.9c7.2,21.2,18.2,40.4,32.2,56.7C242.9,469.1,231.4,474.9,221.4,481.6z
			"/>
	</g>
</g>
</svg>
