<?xml version="1.0" encoding="utf-8"?>
<!-- Generator: Adobe Illustrator 27.2.0, SVG Export Plug-In . SVG Version: 6.00 Build 0)  -->
<svg version="1.1" id="Capa_1" xmlns="http://www.w3.org/2000/svg" xmlns:xlink="http://www.w3.org/1999/xlink" x="0px" y="0px"
	 viewBox="0 0 800 800" style="enable-background:new 0 0 800 800;" xml:space="preserve">
<style type="text/css">
	.st0{fill:#E3F7FF;}
	.st1{fill:url(#SVGID_1_);}
	.st2{fill:url(#SVGID_00000053530967676532793210000006888958354135044224_);}
	.st3{fill:url(#SVGID_00000147911313163687015690000013295629498016562307_);}
	.st4{fill:url(#SVGID_00000142864975804466015030000012223405843590311819_);}
</style>
<g>
	<g>
		<path class="st0" d="M794.34,589.59l0.26-0.25c5.17-4.96,6.8-12.57,4.12-19.21c-2.67-6.65-9.12-11-16.28-11H173.7
			c-66.45,0-120.51,52.95-120.51,118.03c0,65.08,54.06,118.03,120.51,118.03h608.23c7.15,0,13.59-4.34,16.27-10.97
			c2.68-6.63,1.07-14.23-4.07-19.2c-24.2-23.4-37.51-54.57-37.47-87.76C756.7,644.06,770.09,612.92,794.34,589.59z M89.49,663.4
			c0.94-5.42,2.41-10.66,4.38-15.67L89.49,663.4z"/>
		<path class="st0" d="M679.49,308.06H390.9v-14h391.03c7.15,0,13.59-4.34,16.27-10.97c2.68-6.63,1.07-14.23-4.07-19.2
			c-24.2-23.4-37.51-54.57-37.47-87.76c0.04-33.19,13.43-64.33,37.7-87.68l0.26-0.25c5.16-4.96,6.78-12.57,4.11-19.21
			c-2.68-6.64-9.12-10.99-16.28-10.99H173.7c-66.45,0-120.51,52.95-120.51,118.03s54.06,118.03,120.51,118.03h4.27v14H71.26
			c-7.15,0-13.59,4.34-16.27,10.97c-2.68,6.63-1.07,14.23,4.07,19.2c24.2,23.4,37.51,54.57,37.47,87.76
			c-0.04,33.19-13.43,64.33-37.68,87.67l-0.26,0.25c-5.17,4.96-6.8,12.57-4.12,19.21c2.67,6.65,9.12,11,16.28,11h608.75
			c66.45,0,120.51-52.95,120.51-118.03S745.94,308.06,679.49,308.06z"/>
	</g>
	<g>
		<g>
			<linearGradient id="SVGID_1_" gradientUnits="userSpaceOnUse" x1="227.8616" y1="-120.8242" x2="693.074" y2="546.7797">
				<stop  offset="0" style="stop-color:#004C71"/>
				<stop  offset="1" style="stop-color:#56ABD6"/>
			</linearGradient>
			<path class="st1" d="M728.74,240.88H314.77v-35.1h377.27c-15.47-24.69-23.71-53.13-23.67-82.87c0.04-29.8,8.39-58.29,23.98-82.98
				H120.51c-47.09,0-85.41,37.2-85.41,82.92s38.31,82.92,85.41,82.92h27.41v35.1h-27.41C54.06,240.88,0,187.93,0,122.85
				S54.06,4.82,120.51,4.82h608.75c7.16,0,13.6,4.35,16.28,10.99c2.68,6.64,1.05,14.24-4.11,19.21l-0.26,0.25
				c-24.27,23.35-37.65,54.48-37.7,87.68c-0.04,33.19,13.27,64.36,37.47,87.76c5.14,4.97,6.75,12.57,4.07,19.2
				C742.33,236.54,735.9,240.88,728.74,240.88z"/>
		</g>
		<g>
			
				<linearGradient id="SVGID_00000102532582609838541070000012174915556338518455_" gradientUnits="userSpaceOnUse" x1="-7.1945" y1="42.9721" x2="458.018" y2="710.576">
				<stop  offset="0" style="stop-color:#004C71"/>
				<stop  offset="1" style="stop-color:#56ABD6"/>
			</linearGradient>
			<path style="fill:url(#SVGID_00000102532582609838541070000012174915556338518455_);" d="M728.74,741.99H120.51
				C54.06,741.99,0,689.04,0,623.96c0-65.08,54.06-118.03,120.51-118.03h608.75c7.16,0,13.61,4.35,16.28,11
				c2.67,6.65,1.04,14.25-4.12,19.21l-0.26,0.25c-24.26,23.33-37.64,54.47-37.68,87.66c-0.04,33.19,13.27,64.36,37.47,87.76
				c5.14,4.97,6.75,12.57,4.07,19.2C742.33,737.65,735.9,741.99,728.74,741.99z M120.51,541.04c-47.09,0-85.41,37.2-85.41,82.92
				c0,45.73,38.31,82.92,85.41,82.92h571.53c-15.46-24.69-23.71-53.13-23.67-82.87c0.04-29.8,8.39-58.29,23.98-82.98H120.51z"/>
		</g>
		<g>
			
				<linearGradient id="SVGID_00000150802065813106034540000016939781831675931319_" gradientUnits="userSpaceOnUse" x1="77.9153" y1="-16.3357" x2="543.1277" y2="651.2682">
				<stop  offset="0" style="stop-color:#004C71"/>
				<stop  offset="1" style="stop-color:#56ABD6"/>
			</linearGradient>
			<path style="fill:url(#SVGID_00000150802065813106034540000016939781831675931319_);" d="M626.3,490.93H17.55
				c-7.16,0-13.61-4.35-16.28-11c-2.67-6.65-1.04-14.25,4.12-19.21l0.26-0.25c24.26-23.33,37.64-54.47,37.68-87.67
				c0.04-33.19-13.27-64.36-37.47-87.76c-5.14-4.97-6.75-12.57-4.07-19.2c2.68-6.63,9.12-10.97,16.27-10.97h128.1v35.1h-91.4
				c15.47,24.69,23.71,53.13,23.67,82.87c-0.04,29.8-8.39,58.29-23.98,82.98H626.3c47.09,0,85.41-37.2,85.41-82.92
				c0-45.73-38.31-82.92-85.41-82.92H316.51v-35.1H626.3c66.45,0,120.51,52.95,120.51,118.03S692.75,490.93,626.3,490.93z"/>
		</g>
		<g>
			
				<linearGradient id="SVGID_00000021084258310745646180000008640884105307675059_" gradientUnits="userSpaceOnUse" x1="51.7032" y1="1.9298" x2="516.9157" y2="669.5338">
				<stop  offset="0" style="stop-color:#004C71"/>
				<stop  offset="1" style="stop-color:#56ABD6"/>
			</linearGradient>
			<path style="fill:url(#SVGID_00000021084258310745646180000008640884105307675059_);" d="M320.16,427.13
				c-3.15,0-6.29-0.84-9.08-2.53l-79.88-48.26l-79.86,47.77c-5.42,3.24-12.17,3.32-17.67,0.2c-5.5-3.12-8.89-8.95-8.89-15.27V110.13
				c0-9.69,7.86-17.55,17.55-17.55h177.83c9.69,0,17.55,7.86,17.55,17.55v299.44c0,6.33-3.41,12.17-8.93,15.29
				C326.11,426.37,323.13,427.13,320.16,427.13z M231.25,338.3c3.14,0,6.29,0.84,9.08,2.53l62.29,37.63V127.68H159.89v250.41
				l62.35-37.3C225.01,339.13,228.13,338.3,231.25,338.3z"/>
		</g>
	</g>
</g>
</svg>
